<svg width="92" height="71" viewBox="0 0 92 71" fill="none" xmlns="http://www.w3.org/2000/svg">
<path fill-rule="evenodd" clip-rule="evenodd" d="M68.7859 12.0135L68.8281 34.0102L66.0767 32.2536L62.7683 35.8442L59.0252 32.7666L53.374 39.0097L45.6892 30.6585L40.1148 35.7106L36.8701 32.7579L29.7537 38.9925L26.2413 34.2924L26.1743 1.65259L57.794 1.59888L68.7859 12.0135ZM53.798 22.942L52.3627 24.5243L47.505 20.2682L43.2225 24.991L41.5932 23.5645L45.8766 18.8415L41.0183 14.585L42.4536 13.0027L47.3117 17.2591L51.5951 12.5362L53.2228 13.9627L48.94 18.6857L53.798 22.942Z" fill="#CEA666"/>
<path d="M57.9086 1.74614L68.7725 11.9468L57.9124 11.9866L57.9086 1.74614Z" fill="#AE8543"/>
<path d="M68.8163 36.4324L68.8728 56.5426L26.3638 56.6301L26.3127 36.7313L29.8159 41.4104L36.9243 35.1941L40.1581 38.1364L45.7278 33.1028L53.3913 41.4235L59.0373 35.1992L62.7676 38.2621L66.0754 34.6856L68.8163 36.4324Z" fill="#CEA666"/>
<line x1="24.8776" y1="56.17" x2="76.8232" y2="56.17" stroke="#CEA666" stroke-width="0.938776" stroke-linecap="round"/>
<line x1="78.7006" y1="56.17" x2="91.5305" y2="56.17" stroke="#CEA666" stroke-width="0.938776" stroke-linecap="round"/>
<line x1="0.469388" y1="56.17" x2="13.2993" y2="56.17" stroke="#CEA666" stroke-width="0.938776" stroke-linecap="round"/>
<line x1="8.60537" y1="53.6666" x2="21.4353" y2="53.6666" stroke="#CEA666" stroke-width="0.938776" stroke-linecap="round"/>
<line x1="72.755" y1="53.6666" x2="85.585" y2="53.6666" stroke="#CEA666" stroke-width="0.938776" stroke-linecap="round"/>
<line x1="15.4899" y1="56.17" x2="22.6872" y2="56.17" stroke="#CEA666" stroke-width="0.938776" stroke-linecap="round"/>
<path d="M20.4165 67.8529H19.6717L16.6763 63.3107V67.8529H15.9316V62.1403H16.6763L19.6717 66.6744V62.1403H20.4165V67.8529ZM23.6421 67.9266C23.222 67.9266 22.8401 67.8311 22.4963 67.6401C22.158 67.4492 21.8907 67.1791 21.6943 66.8299C21.5033 66.4752 21.4078 66.066 21.4078 65.6023C21.4078 65.1439 21.506 64.7402 21.7025 64.391C21.9043 64.0363 22.1771 63.7663 22.5209 63.5808C22.8646 63.3898 23.2493 63.2943 23.6748 63.2943C24.1004 63.2943 24.4851 63.3898 24.8288 63.5808C25.1726 63.7663 25.4426 64.0336 25.6391 64.3828C25.8409 64.732 25.9419 65.1385 25.9419 65.6023C25.9419 66.066 25.8382 66.4752 25.6309 66.8299C25.429 67.1791 25.1535 67.4492 24.8043 67.6401C24.4551 67.8311 24.0677 67.9266 23.6421 67.9266ZM23.6421 67.2718C23.9095 67.2718 24.1604 67.2091 24.3951 67.0836C24.6297 66.9581 24.8179 66.7699 24.9598 66.5189C25.1071 66.2679 25.1807 65.9624 25.1807 65.6023C25.1807 65.2421 25.1098 64.9366 24.9679 64.6856C24.8261 64.4346 24.6406 64.2491 24.4114 64.1291C24.1823 64.0036 23.934 63.9409 23.6667 63.9409C23.3939 63.9409 23.1429 64.0036 22.9137 64.1291C22.69 64.2491 22.51 64.4346 22.3736 64.6856C22.2372 64.9366 22.169 65.2421 22.169 65.6023C22.169 65.9678 22.2344 66.2761 22.3654 66.5271C22.5018 66.778 22.6818 66.9663 22.9055 67.0918C23.1292 67.2118 23.3748 67.2718 23.6421 67.2718ZM30.879 62.1485C31.501 62.1485 32.0384 62.2658 32.4913 62.5004C32.9496 62.7296 33.2988 63.0597 33.5388 63.4907C33.7844 63.9218 33.9071 64.4292 33.9071 65.013C33.9071 65.5968 33.7844 66.1042 33.5388 66.5352C33.2988 66.9608 32.9496 67.2882 32.4913 67.5174C32.0384 67.7411 31.501 67.8529 30.879 67.8529H29.103V62.1485H30.879ZM30.879 67.2391C31.6156 67.2391 32.1775 67.0454 32.5649 66.658C32.9523 66.2652 33.146 65.7168 33.146 65.013C33.146 64.3037 32.9496 63.7499 32.5567 63.3516C32.1694 62.9533 31.6101 62.7542 30.879 62.7542H29.8478V67.2391H30.879ZM34.6112 65.5941C34.6112 65.1358 34.704 64.7347 34.8895 64.391C35.075 64.0418 35.3287 63.7717 35.6506 63.5808C35.978 63.3898 36.3408 63.2943 36.7391 63.2943C37.132 63.2943 37.473 63.3789 37.7621 63.548C38.0513 63.7172 38.2668 63.9299 38.4087 64.1864V63.368H39.1616V67.8529H38.4087V67.0181C38.2614 67.28 38.0404 67.4983 37.7458 67.6729C37.4566 67.842 37.1183 67.9266 36.7309 67.9266C36.3326 67.9266 35.9725 67.8284 35.6506 67.6319C35.3287 67.4355 35.075 67.16 34.8895 66.8053C34.704 66.4507 34.6112 66.0469 34.6112 65.5941ZM38.4087 65.6023C38.4087 65.264 38.3405 64.9693 38.2041 64.7184C38.0677 64.4674 37.8822 64.2764 37.6476 64.1455C37.4184 64.0091 37.1647 63.9409 36.8864 63.9409C36.6082 63.9409 36.3545 64.0063 36.1253 64.1373C35.8962 64.2682 35.7134 64.4592 35.577 64.7102C35.4406 64.9612 35.3724 65.2558 35.3724 65.5941C35.3724 65.9378 35.4406 66.2379 35.577 66.4943C35.7134 66.7453 35.8962 66.939 36.1253 67.0754C36.3545 67.2064 36.6082 67.2718 36.8864 67.2718C37.1647 67.2718 37.4184 67.2064 37.6476 67.0754C37.8822 66.939 38.0677 66.7453 38.2041 66.4943C38.3405 66.2379 38.4087 65.9405 38.4087 65.6023ZM41.3287 63.9818V66.6253C41.3287 66.8435 41.375 66.999 41.4678 67.0918C41.5606 67.1791 41.7215 67.2227 41.9507 67.2227H42.499V67.8529H41.8279C41.4132 67.8529 41.1022 67.7574 40.8949 67.5665C40.6876 67.3755 40.5839 67.0618 40.5839 66.6253V63.9818H40.0028V63.368H40.5839V62.2385H41.3287V63.368H42.499V63.9818H41.3287ZM43.1231 65.5941C43.1231 65.1358 43.2159 64.7347 43.4014 64.391C43.5869 64.0418 43.8406 63.7717 44.1625 63.5808C44.4899 63.3898 44.8527 63.2943 45.251 63.2943C45.6438 63.2943 45.9849 63.3789 46.274 63.548C46.5632 63.7172 46.7787 63.9299 46.9206 64.1864V63.368H47.6735V67.8529H46.9206V67.0181C46.7733 67.28 46.5523 67.4983 46.2577 67.6729C45.9685 67.842 45.6302 67.9266 45.2428 67.9266C44.8445 67.9266 44.4844 67.8284 44.1625 67.6319C43.8406 67.4355 43.5869 67.16 43.4014 66.8053C43.2159 66.4507 43.1231 66.0469 43.1231 65.5941ZM46.9206 65.6023C46.9206 65.264 46.8524 64.9693 46.716 64.7184C46.5796 64.4674 46.3941 64.2764 46.1595 64.1455C45.9303 64.0091 45.6766 63.9409 45.3983 63.9409C45.1201 63.9409 44.8664 64.0063 44.6372 64.1373C44.408 64.2682 44.2253 64.4592 44.0889 64.7102C43.9524 64.9612 43.8842 65.2558 43.8842 65.5941C43.8842 65.9378 43.9524 66.2379 44.0889 66.4943C44.2253 66.7453 44.408 66.939 44.6372 67.0754C44.8664 67.2064 45.1201 67.2718 45.3983 67.2718C45.6766 67.2718 45.9303 67.2064 46.1595 67.0754C46.3941 66.939 46.5796 66.7453 46.716 66.4943C46.8524 66.2379 46.9206 65.9405 46.9206 65.6023ZM54.3386 62.1485V62.7542H51.8588V64.6774H53.8721V65.2831H51.8588V67.8529H51.114V62.1485H54.3386ZM57.1941 67.9266C56.774 67.9266 56.3921 67.8311 56.0483 67.6401C55.71 67.4492 55.4427 67.1791 55.2463 66.8299C55.0553 66.4752 54.9598 66.066 54.9598 65.6023C54.9598 65.1439 55.058 64.7402 55.2545 64.391C55.4563 64.0363 55.7291 63.7663 56.0729 63.5808C56.4166 63.3898 56.8013 63.2943 57.2269 63.2943C57.6524 63.2943 58.0371 63.3898 58.3808 63.5808C58.7246 63.7663 58.9946 64.0336 59.1911 64.3828C59.3929 64.732 59.4939 65.1385 59.4939 65.6023C59.4939 66.066 59.3902 66.4752 59.1829 66.8299C58.981 67.1791 58.7055 67.4492 58.3563 67.6401C58.0071 67.8311 57.6197 67.9266 57.1941 67.9266ZM57.1941 67.2718C57.4615 67.2718 57.7124 67.2091 57.9471 67.0836C58.1817 66.9581 58.3699 66.7699 58.5118 66.5189C58.6591 66.2679 58.7327 65.9624 58.7327 65.6023C58.7327 65.2421 58.6618 64.9366 58.52 64.6856C58.3781 64.4346 58.1926 64.2491 57.9634 64.1291C57.7343 64.0036 57.486 63.9409 57.2187 63.9409C56.9459 63.9409 56.6949 64.0036 56.4657 64.1291C56.242 64.2491 56.062 64.4346 55.9256 64.6856C55.7892 64.9366 55.721 65.2421 55.721 65.6023C55.721 65.9678 55.7864 66.2761 55.9174 66.5271C56.0538 66.778 56.2338 66.9663 56.4575 67.0918C56.6812 67.2118 56.9268 67.2718 57.1941 67.2718ZM64.4506 63.368V67.8529H63.7059V67.19C63.564 67.4191 63.3649 67.5992 63.1084 67.7301C62.8574 67.8556 62.5792 67.9184 62.2736 67.9184C61.9244 67.9184 61.6107 67.8474 61.3324 67.7056C61.0542 67.5583 60.8332 67.34 60.6695 67.0509C60.5113 66.7617 60.4322 66.4098 60.4322 65.9951V63.368H61.1688V65.8969C61.1688 66.3388 61.2806 66.6798 61.5043 66.9199C61.728 67.1545 62.0336 67.2718 62.4209 67.2718C62.8192 67.2718 63.133 67.1491 63.3621 66.9035C63.5913 66.658 63.7059 66.3006 63.7059 65.8314V63.368H64.4506ZM67.8933 63.2861C68.4389 63.2861 68.8809 63.4525 69.2191 63.7854C69.5574 64.1127 69.7266 64.5874 69.7266 65.2094V67.8529H68.99V65.3158C68.99 64.8684 68.8781 64.5274 68.6544 64.2928C68.4307 64.0527 68.1252 63.9327 67.7378 63.9327C67.3449 63.9327 67.0312 64.0554 66.7966 64.301C66.5675 64.5465 66.4529 64.9039 66.4529 65.3731V67.8529H65.7081V63.368H66.4529V64.0063C66.6002 63.7772 66.7993 63.5999 67.0503 63.4744C67.3068 63.3489 67.5877 63.2861 67.8933 63.2861ZM70.6649 65.5941C70.6649 65.1358 70.7576 64.7347 70.9431 64.391C71.1286 64.0418 71.3823 63.7717 71.7042 63.5808C72.0316 63.3898 72.3972 63.2943 72.8009 63.2943C73.1501 63.2943 73.4748 63.3761 73.7749 63.5398C74.0749 63.6981 74.3041 63.9081 74.4623 64.17V61.7966H75.2153V67.8529H74.4623V67.0099C74.315 67.2773 74.0968 67.4983 73.8076 67.6729C73.5184 67.842 73.1801 67.9266 72.7927 67.9266C72.3944 67.9266 72.0316 67.8284 71.7042 67.6319C71.3823 67.4355 71.1286 67.16 70.9431 66.8053C70.7576 66.4507 70.6649 66.0469 70.6649 65.5941ZM74.4623 65.6023C74.4623 65.264 74.3941 64.9693 74.2577 64.7184C74.1213 64.4674 73.9358 64.2764 73.7012 64.1455C73.472 64.0091 73.2183 63.9409 72.9401 63.9409C72.6618 63.9409 72.4081 64.0063 72.1789 64.1373C71.9498 64.2682 71.767 64.4592 71.6306 64.7102C71.4942 64.9612 71.426 65.2558 71.426 65.5941C71.426 65.9378 71.4942 66.2379 71.6306 66.4943C71.767 66.7453 71.9498 66.939 72.1789 67.0754C72.4081 67.2064 72.6618 67.2718 72.9401 67.2718C73.2183 67.2718 73.472 67.2064 73.7012 67.0754C73.9358 66.939 74.1213 66.7453 74.2577 66.4943C74.3941 66.2379 74.4623 65.9405 74.4623 65.6023ZM79.6215 62.1485L79.5315 66.2406H78.9095L78.8194 62.1485H79.6215ZM79.2532 67.902C79.1114 67.902 78.9913 67.8529 78.8931 67.7547C78.7949 67.6565 78.7458 67.5364 78.7458 67.3946C78.7458 67.2527 78.7949 67.1327 78.8931 67.0345C78.9913 66.9363 79.1114 66.8872 79.2532 66.8872C79.3896 66.8872 79.5042 66.9363 79.5969 67.0345C79.6952 67.1327 79.7443 67.2527 79.7443 67.3946C79.7443 67.5364 79.6952 67.6565 79.5969 67.7547C79.5042 67.8529 79.3896 67.902 79.2532 67.902Z" fill="white"/>
</svg>
