<svg width="35" height="35" viewBox="0 0 35 35" fill="none" xmlns="http://www.w3.org/2000/svg">
<path fill-rule="evenodd" clip-rule="evenodd" d="M17.5 35C27.165 35 35 27.165 35 17.5C35 7.83502 27.165 0 17.5 0C7.83502 0 0 7.83502 0 17.5C0 27.165 7.83502 35 17.5 35ZM15 21H13C13 22.79 14.47 24.31 16.5 24.82V27H19.5V24.82C21.53 24.31 23 22.79 23 21C23 18.22 20.36 17.56 18.24 17.03C16.04 16.5 15 16.1 15 15C15 13.92 16.37 13 18 13C19.63 13 21 13.92 21 15H23C23 13.21 21.53 11.69 19.5 11.18V9H16.5V11.18C14.47 11.69 13 13.21 13 15C13 17.78 15.64 18.44 17.76 18.97C19.96 19.5 21 19.9 21 21C21 22.08 19.63 23 18 23C16.37 23 15 22.08 15 21Z" fill="#CEA666"/>
</svg>
