<svg width="20" height="20" viewBox="0 0 20 20" fill="none" xmlns="http://www.w3.org/2000/svg">
<path d="M0 10C0 15.5225 4.4775 20 10 20C15.5225 20 20 15.5225 20 10C20 4.4775 15.5225 0 10 0C4.4775 0 0 4.4775 0 10ZM11.0417 5C11.0417 5.27627 10.9319 5.54122 10.7366 5.73657C10.5412 5.93192 10.2763 6.04167 10 6.04167C9.72373 6.04167 9.45878 5.93192 9.26343 5.73657C9.06808 5.54122 8.95833 5.27627 8.95833 5C8.95833 4.72373 9.06808 4.45878 9.26343 4.26343C9.45878 4.06808 9.72373 3.95833 10 3.95833C10.2763 3.95833 10.5412 4.06808 10.7366 4.26343C10.9319 4.45878 11.0417 4.72373 11.0417 5ZM10 7.5C10.221 7.5 10.433 7.5878 10.5893 7.74408C10.7455 7.90036 10.8333 8.11232 10.8333 8.33333V15C10.8333 15.221 10.7455 15.433 10.5893 15.5893C10.433 15.7455 10.221 15.8333 10 15.8333C9.77899 15.8333 9.56702 15.7455 9.41074 15.5893C9.25446 15.433 9.16667 15.221 9.16667 15V8.33333C9.16667 8.11232 9.25446 7.90036 9.41074 7.74408C9.56702 7.5878 9.77899 7.5 10 7.5Z" fill="#CEA666"/>
</svg>
