<svg width="20" height="18" viewBox="0 0 20 18" fill="none" xmlns="http://www.w3.org/2000/svg">
<path d="M19.5132 16.6313L15.646 7.26406C15.5746 7.09108 15.4534 6.94318 15.2979 6.83912C15.1423 6.73505 14.9594 6.6795 14.7722 6.6795C14.5851 6.6795 14.4022 6.73505 14.2466 6.83912C14.0911 6.94318 13.9699 7.09108 13.8985 7.26406L10.0313 16.6313C9.9832 16.7461 9.95829 16.8694 9.95797 16.9939C9.95766 17.1184 9.98195 17.2418 10.0295 17.3569C10.077 17.472 10.1468 17.5766 10.2348 17.6647C10.3229 17.7527 10.4274 17.8225 10.5426 17.8701C10.6577 17.9176 10.781 17.9419 10.9056 17.9416C11.0301 17.9413 11.1533 17.9164 11.2682 17.8683C11.3831 17.8202 11.4873 17.7499 11.575 17.6615C11.6626 17.573 11.7319 17.468 11.7788 17.3527L12.5664 15.4453H16.978L17.7657 17.3527C17.8371 17.5258 17.9582 17.6737 18.1138 17.7778C18.2694 17.882 18.4524 17.9375 18.6397 17.9375C18.795 17.9374 18.9479 17.899 19.0849 17.8258C19.2219 17.7525 19.3387 17.6467 19.425 17.5175C19.5113 17.3884 19.5645 17.2399 19.5798 17.0854C19.5951 16.9308 19.5721 16.7748 19.5128 16.6313H19.5132ZM13.3472 13.5547L14.7725 10.1021L16.1977 13.5547H13.3472ZM10.4687 12.7348C10.6156 12.532 10.6759 12.2791 10.6365 12.0318C10.5971 11.7845 10.4612 11.5629 10.2586 11.4157C10.25 11.4093 9.61406 10.9375 8.69067 9.9234C10.3944 7.61684 11.3595 4.99273 11.753 3.75781H13.1396C13.3904 3.75781 13.6308 3.65822 13.8081 3.48094C13.9854 3.30366 14.085 3.06321 14.085 2.8125C14.085 2.56179 13.9854 2.32134 13.8081 2.14406C13.6308 1.96678 13.3904 1.86719 13.1396 1.86719H8.15527V1.00781C8.15527 0.7571 8.05568 0.516656 7.8784 0.339376C7.70112 0.162095 7.46067 0.0625 7.20996 0.0625C6.95925 0.0625 6.7188 0.162095 6.54152 0.339376C6.36424 0.516656 6.26465 0.7571 6.26465 1.00781V1.86719H1.28027C1.02956 1.86719 0.789117 1.96678 0.611837 2.14406C0.434556 2.32134 0.334961 2.56179 0.334961 2.8125C0.334961 3.06321 0.434556 3.30366 0.611837 3.48094C0.789117 3.65822 1.02956 3.75781 1.28027 3.75781H9.75586C9.3468 4.91582 8.59356 6.74414 7.44457 8.41391C6.09492 6.62297 5.59348 5.4641 5.58961 5.45465C5.4908 5.22631 5.30596 5.04613 5.07517 4.95318C4.84438 4.86024 4.58626 4.86203 4.35678 4.95816C4.1273 5.0543 3.94497 5.23702 3.84934 5.46671C3.75371 5.6964 3.75249 5.95453 3.84594 6.18512C3.87086 6.24441 4.47113 7.65594 6.11727 9.79149C6.1568 9.84262 6.1959 9.89246 6.235 9.94231C4.54891 11.848 2.89461 13.03 2.20238 13.4116C1.98227 13.5317 1.81886 13.7342 1.74811 13.9748C1.67736 14.2153 1.70506 14.4741 1.82512 14.6942C1.94517 14.9143 2.14775 15.0777 2.38829 15.1485C2.62883 15.2192 2.88762 15.1915 3.10773 15.0715C3.20055 15.0208 5.19602 13.9161 7.47465 11.3938C8.44231 12.4285 9.10746 12.9166 9.14742 12.945C9.24797 13.018 9.36193 13.0705 9.48278 13.0994C9.60363 13.1284 9.729 13.1332 9.85172 13.1137C9.97444 13.0941 10.0921 13.0505 10.198 12.9855C10.3038 12.9204 10.3958 12.8351 10.4687 12.7344V12.7348Z" fill="#CEA666"/>
</svg>
