<svg width="203" height="81" viewBox="0 0 203 81" fill="none" xmlns="http://www.w3.org/2000/svg">
<path fill-rule="evenodd" clip-rule="evenodd" d="M26.644 22.8373C27.1778 23.2868 26.8708 22.9162 24.6137 24.6134C23.8254 25.2062 23.298 25.6437 22.5053 26.3114C17.3731 30.6337 15.5925 32.5041 11.0929 38.4975C8.26464 42.2646 3.98219 48.449 2.13524 52.8851C1.62298 54.1156 0.0934931 57.4951 0 58.616C1.31776 57.7337 3.734 53.7268 6.02653 51.4475C7.19064 50.2899 8.16984 49.3157 9.32431 48.1479C11.1614 46.2892 18.1158 40.264 20.1469 38.9241C22.8462 37.1431 26.0929 33.9086 28.674 34.5099C27.3385 37.0334 25.7911 39.3609 24.3124 41.8208C19.9573 49.0651 17.3165 53.2541 15.2784 61.9682C14.5224 65.2006 13.5276 66.2277 14.7177 68.0049C16.4899 67.5918 15.6568 66.7306 17.9796 63.6545C19.108 62.1596 20.1008 60.8268 21.243 59.3051C22.6011 57.4951 26.4489 52.6004 28.1068 50.9441C29.1594 49.8925 30.1076 48.4279 31.7936 47.0184L33.8093 45.228C34.2841 44.7863 34.3583 44.7999 34.801 44.4433C35.2466 44.0847 35.4081 43.847 35.8547 43.467C36.5844 42.8459 37.2293 42.399 37.9829 41.7888C43.7964 37.0819 52.1775 31.6059 58.7845 28.3344C64.0521 25.726 79.5379 18.1952 84.5058 21.3081C87.9358 23.4574 84.9508 25.8825 86.5288 25.8825C89.5521 25.8825 99.0805 12.7609 88.8489 9.6061C86.4316 8.8605 83.17 8.88107 79.9314 8.88107C80.1447 6.31744 81.177 3.88271 76.9735 1.43522C75.3455 0.487527 73.1986 0.081253 70.8985 0H69.0367C65.2993 0.121359 61.4226 0.916446 58.8702 1.5222C47.4838 4.22542 39.7281 7.62868 29.7891 14.3102C26.7612 16.3457 23.9358 17.9952 21.1219 20.6141L16.4254 24.7988C14.7862 26.382 7.45262 32.4468 7.10522 33.7487C8.35969 33.6442 11.1296 31.9202 12.2585 31.2895C13.6695 30.5006 25.6163 23.7306 26.644 22.8373ZM27.1515 22.5837L27.2271 22.6592C27.2221 22.6542 27.126 22.6089 27.1515 22.5837ZM65.9751 6.59738C68.9791 6.34737 66.3204 5.24422 71.8824 6.78022C73.0361 7.09872 73.0691 6.98307 73.334 8.11983C64.5943 8.11983 68.8698 7.7792 65.9751 7.10496V6.59738Z" fill="#CEA666"/>
<path fill-rule="evenodd" clip-rule="evenodd" d="M68.5127 28.4198L68.5884 28.3443C68.5832 28.3492 68.4874 28.3945 68.5127 28.4198ZM40.3463 68.5125C40.3463 71.7813 39.9978 73.1397 42.4367 75.557C47.7218 80.7949 49.3565 76.518 49.3333 75.4057C49.2604 71.9493 46.5283 74.5512 49.0737 64.2985C50.6406 57.9873 53.1168 53.1163 55.9067 47.5328C58.4657 42.4107 63.9823 34.281 67.7241 29.6613C68.2712 28.9855 68.2746 29.311 68.5127 28.4198C67.6986 28.6373 66.8459 29.5225 66.1634 30.1308C62.9729 32.9749 62.7414 32.7955 59.3141 36.2227L49.3718 47.3414C48.6598 48.2474 48.1455 48.8393 47.5015 49.7852C46.8405 50.7561 46.3827 51.2899 45.754 52.3512L43.5594 56.5003C41.9856 59.8957 40.3463 64.6295 40.3463 68.5125Z" fill="#CEA666"/>
<path fill-rule="evenodd" clip-rule="evenodd" d="M48.2124 40.0924L48.2882 40.0168C48.2833 40.0215 48.1874 40.0671 48.2124 40.0924ZM30.4576 80.1847H30.4422C28.7747 80.1806 27.4906 78.8493 26.389 77.9021C25.1736 76.857 24.6139 75.434 24.6139 73.3337C24.6139 66.3225 28.5927 58.5938 33.3035 53.8569C34.0429 53.1134 34.2572 52.6689 34.9489 51.9501C39.0194 47.7213 39.2892 47.1778 43.9771 43.2157C44.7201 42.5878 47.171 40.5564 47.9588 40.346C47.7471 41.139 44.693 44.6324 43.949 45.7251C39.673 52.0071 36.8149 56.2711 33.9265 63.6149C29.1346 75.7984 32.7337 76.1606 32.7337 78.155C32.7337 79.155 31.5868 80.18 30.4576 80.1847ZM47.9588 40.0924C47.9335 40.1176 48.0346 40.1322 48.0346 40.1679L47.9588 40.0924Z" fill="#CEA666"/>
<path fill-rule="evenodd" clip-rule="evenodd" d="M176.61 36.7936H184.73C186.206 36.7936 186.053 37.3699 186.506 38.316H183.969V40.8536H186.506C186.187 41.5182 186.215 42.3761 185.238 42.3761H176.103C175.288 42.3761 174.902 41.6703 174.834 40.8536C177.518 40.8536 177.625 41.3151 177.625 39.0773C177.625 37.9309 176.048 38.316 174.834 38.316C175.064 37.33 175.406 36.7936 176.61 36.7936ZM154.28 36.7936H162.146C163.287 36.7936 163.833 37.2371 163.923 38.316C161.451 38.316 161.385 37.8915 161.385 40.0924C161.385 41.2179 162.747 40.8536 163.923 40.8536C163.833 41.9344 163.553 42.3761 162.4 42.3761H154.026C152.866 42.3761 152.53 42.0466 152.504 40.8536H155.549V38.316H152.504C152.594 37.2371 153.14 36.7936 154.28 36.7936ZM132.204 36.7936H140.324C141.528 36.7936 141.87 37.33 142.1 38.316C139.346 38.316 139.563 37.8282 139.563 40.8536H142.1C142.032 41.6703 141.646 42.3761 140.831 42.3761H131.696C130.82 42.3761 130.596 41.5768 130.428 40.8536H133.219C133.219 37.8074 133.445 38.316 130.428 38.316C130.882 37.3699 130.728 36.7936 132.204 36.7936ZM109.874 36.7936H117.994C119.147 36.7936 119.426 37.2355 119.516 38.316H117.233C116.573 41.1482 116.857 40.8536 119.516 40.8536C119.49 42.0466 119.154 42.3761 117.994 42.3761H109.62C108.467 42.3761 108.188 41.9344 108.098 40.8536C110.898 40.8536 111.303 41.1846 110.635 38.316H108.098C108.187 37.2371 108.733 36.7936 109.874 36.7936ZM87.2902 36.7936H95.1564C96.2968 36.7936 96.8429 37.2371 96.9325 38.316C94.4418 38.316 94.6489 37.8564 94.6489 40.8536H96.9325C96.8427 41.9344 96.563 42.3761 95.4101 42.3761H87.0363C85.8834 42.3761 85.6037 41.9344 85.5139 40.8536H88.3051C89.0367 37.7131 89.1518 38.316 85.5139 38.316C85.6037 37.2371 86.1496 36.7936 87.2902 36.7936ZM83.2302 38.316C72.6157 38.316 72.3188 37.3394 72.3188 40.8536H83.2302C83.2302 42.7769 83.8998 44.9137 86.2751 44.9137H96.1713C98.5469 44.9137 99.2165 42.7769 99.2165 40.8536H105.814C105.814 43.0409 106.819 44.9137 108.859 44.9137H118.755C121.131 44.9137 121.8 42.7769 121.8 40.8536H128.144C128.195 43.1542 129.351 44.9137 131.696 44.9137H140.831C143.188 44.9137 144.384 43.2196 144.384 40.8536H150.22C150.22 42.7769 150.89 44.9137 153.265 44.9137H163.161C165.288 44.9137 166.206 43.048 166.206 40.8536H172.55C172.55 43.2574 173.707 44.9137 176.103 44.9137H185.491C187.62 44.9137 188.615 42.9592 188.79 40.8536H199.955C199.955 37.6472 200.626 38.316 194.88 38.316C192.85 38.316 190.82 38.316 188.79 38.316C188.595 35.9667 187.537 34.256 184.984 34.256H175.849C173.883 34.256 172.55 36.1641 172.55 38.316H166.206C166.206 36.854 166.143 36.3738 165.4 35.5696C164.871 34.9964 163.933 34.256 162.908 34.256H153.773C150.9 34.256 150.22 36.1691 150.22 38.316H144.384C144.384 36.1641 143.052 34.256 141.085 34.256H131.95C129.397 34.256 128.339 35.9667 128.144 38.316H121.8C121.8 36.2253 121.25 34.256 118.248 34.256H109.113C107.364 34.256 105.814 35.8532 105.814 38.316H99.2165C99.2165 36.9165 99.055 36.1628 98.355 35.3711C97.7648 34.7036 96.8312 34.256 95.6637 34.256H86.7827C84.2972 34.256 83.2302 35.8914 83.2302 38.316Z" fill="#CEA666"/>
<path fill-rule="evenodd" clip-rule="evenodd" d="M82.9766 63.4373H85.2603V50.7498C85.8225 51.397 87.7116 57.0292 88.0791 58.0808C88.8039 60.1559 88.6411 60.1387 90.5888 60.1387C91.7074 60.1387 92.3819 56.8021 92.7983 55.7505C93.1483 54.8666 93.3691 54.2247 93.666 53.3195C93.7692 53.0049 93.8798 52.6051 94.0345 52.1655C94.3051 51.3975 94.2049 51.5144 94.6489 51.0037V63.4373H97.1865V48.2122C97.1865 47.1528 96.306 47.451 94.1413 47.451C93.2129 47.451 92.3764 50.5819 91.8889 52.0499C91.568 53.0171 90.425 56.656 89.8276 57.0936C89.2304 54.5299 86.9413 49.2216 86.5288 47.451H82.9766V63.4373Z" fill="#CEA666"/>
<path fill-rule="evenodd" clip-rule="evenodd" d="M192.089 63.4373H194.626V52.7799L199.363 60.9843C200.813 63.7055 200.25 63.4373 203 63.4373V47.451C200.187 47.451 200.412 47.2148 200.448 49.4664L200.463 58.1087L198.098 54.1294C197.453 52.9681 194.804 47.451 193.865 47.451H192.089V63.4373Z" fill="#CEA666"/>
<path fill-rule="evenodd" clip-rule="evenodd" d="M157.071 29.435H152.758V18.016C155.014 18.016 155.941 17.8291 157.833 18.27C158.382 20.6302 158.086 25.7327 158.086 28.4198C158.086 29.0139 157.666 29.435 157.071 29.435ZM150.22 31.7186C161.517 31.7186 160.878 32.8874 160.878 20.8073C160.878 14.5659 157.341 15.7324 150.22 15.7324V31.7186Z" fill="#CEA666"/>
<path fill-rule="evenodd" clip-rule="evenodd" d="M120.024 55.3174H116.725V49.7349C118.96 49.7349 119.673 49.5521 121.546 49.9886C122.105 51.1537 122.863 55.3174 120.024 55.3174ZM114.188 48.2122V62.676C114.188 63.6878 114.906 63.4373 116.725 63.4373C116.725 56.4729 116.094 57.3475 119.009 57.3475C119.864 57.3475 119.817 58.224 120.786 60.1376C121.331 61.2145 121.747 62.3789 122.308 63.4373H125.099L122.308 57.3475C123.54 55.6659 124.591 57.0943 124.591 51.511C124.591 46.4481 119.556 47.451 114.949 47.451C114.364 47.451 114.188 47.6275 114.188 48.2122Z" fill="#CEA666"/>
<path fill-rule="evenodd" clip-rule="evenodd" d="M127.636 27.9125C127.636 25.2851 127.345 20.6078 127.89 18.27C129.056 17.9983 133.219 17.3436 133.219 19.2849C133.219 21.9357 133.51 26.8419 132.965 29.1811C131.137 29.6071 130.836 29.435 128.651 29.435C127.871 29.435 127.636 28.6915 127.636 27.9125ZM125.099 19.2849V28.1662C125.099 32.5486 129.258 31.7186 132.711 31.7186C134.52 31.7186 135.756 30.0694 135.756 28.1662V19.2849C135.756 15.0811 131.533 15.7324 128.651 15.7324C126.431 15.7324 125.099 17.0647 125.099 19.2849Z" fill="#CEA666"/>
<path fill-rule="evenodd" clip-rule="evenodd" d="M111.65 18.7772V28.6737C111.65 32.44 116.577 31.7186 119.009 31.7186C122.729 31.7186 122.054 26.0515 122.054 23.8524C122.054 22.661 120.495 23.0912 117.486 23.0912C116.372 23.0912 116.372 25.3749 117.486 25.3749H119.516C119.516 29.9605 119.633 29.4349 115.203 29.4349C114.609 29.4349 114.188 29.0138 114.188 28.4198C114.188 25.7327 113.891 20.6302 114.441 18.2699C116.211 17.8574 116.127 18.016 118.248 18.016C120.788 18.016 117.652 21.0612 121.293 21.0612C122.938 21.0612 122.203 15.7323 118.501 15.7323C116.331 15.7323 111.65 15.0883 111.65 18.7772Z" fill="#CEA666"/>
<path fill-rule="evenodd" clip-rule="evenodd" d="M157.833 48.2122V63.4372H160.37V56.5862H165.953V62.676C165.953 63.8365 168.744 63.8365 168.744 62.676V48.2122C168.744 47.0869 167.382 47.451 166.206 47.451C165.71 49.5807 165.953 52.086 165.953 54.3023H160.37V47.451C158.552 47.451 157.833 47.2007 157.833 48.2122Z" fill="#CEA666"/>
<path fill-rule="evenodd" clip-rule="evenodd" d="M69.0204 51.0037V52.7798C69.0204 58.3264 77.1402 54.9596 77.1402 59.3775C77.1402 62.3661 72.3718 61.3401 71.9022 60.809C70.8176 59.5835 72.9484 58.3623 69.7816 58.3623C68.0646 58.3623 69.0763 63.4373 72.0652 63.4373C76.3383 63.4373 79.6778 64.4087 79.6778 58.616C79.6778 52.6356 71.5577 55.6729 71.5577 52.2723C71.5577 49.2591 72.315 49.7349 75.6177 49.7349C76.8813 49.7349 76.8865 50.9957 76.8865 52.2723C79.3455 52.8452 79.4239 52.6754 79.4239 51.0037C79.4239 46.8442 75.3003 47.451 72.5726 47.451C70.4605 47.451 69.0204 48.8914 69.0204 51.0037Z" fill="#CEA666"/>
<path fill-rule="evenodd" clip-rule="evenodd" d="M177.118 49.9886C177.152 50.0422 177.188 50.0693 177.2 50.1605L179.401 57.8547H175.087C175.395 56.537 175.751 55.3057 176.103 54.0486C176.421 52.9124 177.015 51.2272 177.118 49.9886ZM171.028 63.4373H173.565C173.613 62.8586 174.373 60.316 174.58 59.885H179.909C180.182 61.0595 180.65 62.2627 180.924 63.4373H183.462L179.498 49.1305C178.959 47.1564 179.285 47.451 176.103 47.451C175.259 47.451 175.226 48.1403 175.02 48.9057C174.853 49.5224 174.702 50.081 174.471 50.8938C173.9 52.9004 171.055 62.1937 171.028 63.4373Z" fill="#CEA666"/>
<path fill-rule="evenodd" clip-rule="evenodd" d="M105.814 49.9886C105.966 51.8121 107.72 56.3708 107.844 57.8547H103.53L105.814 49.9886ZM99.4702 63.4372H102.008C102.281 62.2627 102.749 61.0595 103.023 59.885H108.351C108.685 60.5798 109.161 62.5544 109.366 63.4372H111.904C111.88 62.3747 110.133 56.6974 109.709 55.2291C109.278 53.7387 108.947 52.5824 108.517 51.092C107.298 46.8733 108.201 47.451 104.545 47.451C103.567 47.451 103.428 49.206 102.934 50.9154L99.4702 63.4372Z" fill="#CEA666"/>
<path fill-rule="evenodd" clip-rule="evenodd" d="M144.13 51.7649C144.13 63.9453 143.592 63.4372 151.489 63.4372C154.342 63.4372 155.482 60.8358 154.788 57.8547H152.504C151.859 60.6236 153.022 61.4075 149.205 61.4075C145.713 61.4075 146.668 58.6623 146.668 52.0186C146.668 49.2182 147.884 49.7349 150.728 49.7349C151.413 49.7349 151.427 49.856 151.996 49.9886C152.64 52.7525 151.368 53.0335 154.28 53.0335C154.695 53.0335 155.042 52.8816 155.042 52.5262C155.042 46.6153 151.725 47.451 147.429 47.451C145.398 47.451 144.13 49.3781 144.13 51.7649Z" fill="#CEA666"/>
<path fill-rule="evenodd" clip-rule="evenodd" d="M126.368 48.9737C126.368 50.1011 127.552 49.7349 130.174 49.7349V63.4373H132.711V49.7349C137.073 49.7349 136.518 50.2185 136.518 47.451H126.368V48.9737Z" fill="#CEA666"/>
<path fill-rule="evenodd" clip-rule="evenodd" d="M139.055 31.7186H147.936C147.936 28.7906 148.844 29.4349 141.593 29.4349V16.4936C141.593 15.4818 140.874 15.7324 139.055 15.7324V31.7186Z" fill="#CEA666"/>
<path fill-rule="evenodd" clip-rule="evenodd" d="M185.999 63.4372C187.818 63.4372 188.536 63.6878 188.536 62.676V48.2122C188.536 47.2007 187.818 47.451 185.999 47.451V63.4372Z" fill="#CEA666"/>
</svg>
