<svg width="240" height="57" viewBox="0 0 240 57" fill="none" xmlns="http://www.w3.org/2000/svg">
<path d="M34.5711 13.6851C20.3414 13.8394 0 22.3481 0 22.3481V57H239.528V1C239.528 1 215.375 11.6885 196.726 13.6851C175.099 16.0005 160.097 4.09392 140.342 4.09392C120.587 4.09392 106.161 31.3279 81.4889 29.7735C61.4206 28.5091 54.7076 13.4667 34.5711 13.6851Z" fill="url(#paint0_linear_11_1084)"/>
<path d="M0.817688 22.2308C0.817688 22.2308 21.0284 13.7689 35.1667 13.6154C55.1739 13.3982 61.8437 28.3579 81.7832 29.6154C106.297 31.1613 120.63 4.07692 140.258 4.07692C159.886 4.07692 174.792 15.918 196.28 13.6154C214.809 11.6298 238.807 1 238.807 1" stroke="#CEA666" stroke-linecap="round"/>
<defs>
<linearGradient id="paint0_linear_11_1084" x1="119.764" y1="1" x2="119.996" y2="56.6814" gradientUnits="userSpaceOnUse">
<stop stop-color="#CEA666" stop-opacity="0.28"/>
<stop offset="0.841667" stop-color="#CEA666" stop-opacity="0.13"/>
</linearGradient>
</defs>
</svg>
