<svg width="51" height="44" viewBox="0 0 51 44" fill="none" xmlns="http://www.w3.org/2000/svg">
<path fill-rule="evenodd" clip-rule="evenodd" d="M14.3795 12.3251C14.6676 12.5676 14.5019 12.3676 13.2837 13.2836C12.8583 13.6035 12.5737 13.8396 12.1458 14.2C9.37605 16.5327 8.41511 17.5421 5.9867 20.7767C4.46033 22.8097 2.14914 26.1474 1.15237 28.5415C0.875906 29.2056 0.0504572 31.0295 0 31.6344C0.711179 31.1582 2.0152 28.9957 3.25245 27.7657C3.88071 27.1409 4.40917 26.6151 5.03223 25.9849C6.02366 24.9818 9.77689 21.73 10.873 21.0069C12.3298 20.0457 14.0821 18.3001 15.475 18.6246C14.7543 19.9865 13.9192 21.2426 13.1211 22.5702C10.7707 26.4799 9.34555 28.7406 8.24561 33.4436C7.83759 35.188 7.30069 35.7424 7.943 36.7015C8.89944 36.4786 8.44982 36.0138 9.70338 34.3536C10.3124 33.5469 10.8482 32.8275 11.4646 32.0063C12.1976 31.0295 14.2742 28.3879 15.1689 27.494C15.737 26.9264 16.2488 26.136 17.1587 25.3753L18.2465 24.409C18.5027 24.1707 18.5428 24.178 18.7817 23.9856C19.0222 23.792 19.1094 23.6637 19.3504 23.4587C19.7442 23.1234 20.0922 22.8823 20.499 22.553C23.6364 20.0127 28.1596 17.0573 31.7253 15.2918C34.5682 13.884 42.9257 9.81976 45.6068 11.4997C47.458 12.6597 45.847 13.9685 46.6986 13.9685C48.3303 13.9685 53.4727 6.88692 47.9508 5.1843C46.6462 4.78191 44.886 4.79302 43.1381 4.79302C43.2532 3.40945 43.8103 2.09545 41.5417 0.774572C40.6632 0.263113 39.5045 0.0438514 38.2631 0H37.2583C35.2413 0.0654959 33.1491 0.494595 31.7716 0.821513C25.6265 2.28041 21.4408 4.11711 16.0769 7.72304C14.4427 8.82158 12.9179 9.71182 11.3993 11.1252L8.86458 13.3837C7.97996 14.2381 4.0221 17.5112 3.83461 18.2138C4.51163 18.1574 6.00651 17.227 6.61579 16.8866C7.37729 16.4609 13.8249 12.8071 14.3795 12.3251ZM14.6534 12.1882L14.6941 12.2289C14.6915 12.2262 14.6396 12.2018 14.6534 12.1882ZM35.606 3.56053C37.2273 3.42561 35.7924 2.83025 38.7941 3.65921C39.4168 3.8311 39.4346 3.76869 39.5775 4.38218C34.8609 4.38218 37.1682 4.19835 35.606 3.83447V3.56053Z" fill="#CEA666"/>
<path fill-rule="evenodd" clip-rule="evenodd" d="M36.9755 15.3379L37.0164 15.2971C37.0136 15.2998 36.9619 15.3242 36.9755 15.3379ZM21.7744 36.9754C21.7744 38.7396 21.5864 39.4727 22.9026 40.7773C25.7549 43.6042 26.6371 41.2959 26.6246 40.6956C26.5853 38.8303 25.1108 40.2345 26.4845 34.7012C27.3302 31.2951 28.6665 28.6663 30.1722 25.6529C31.5533 22.8886 34.5305 18.5011 36.5499 16.0079C36.8452 15.6431 36.8471 15.8188 36.9755 15.3379C36.5362 15.4552 36.076 15.933 35.7076 16.2613C33.9858 17.7962 33.8608 17.6994 32.0112 19.549L26.6454 25.5496C26.2612 26.0386 25.9836 26.3581 25.636 26.8685C25.2793 27.3925 25.0322 27.6806 24.6929 28.2534L23.5085 30.4926C22.6592 32.3251 21.7744 34.8798 21.7744 36.9754Z" fill="#CEA666"/>
<path fill-rule="evenodd" clip-rule="evenodd" d="M26.0197 21.6374L26.0606 21.5967C26.058 21.5992 26.0063 21.6238 26.0197 21.6374ZM16.4377 43.2748H16.4294C15.5294 43.2726 14.8364 42.5541 14.2419 42.0429C13.5859 41.4789 13.2839 40.7109 13.2839 39.5774C13.2839 35.7935 15.4312 31.6225 17.9736 29.066C18.3726 28.6648 18.4883 28.4248 18.8616 28.0369C21.0584 25.7547 21.204 25.4614 23.734 23.323C24.135 22.9842 25.4577 21.8879 25.8829 21.7743C25.7686 22.2023 24.1204 24.0876 23.7188 24.6774C21.4111 28.0677 19.8686 30.3689 18.3098 34.3323C15.7237 40.9076 17.6661 41.1031 17.6661 42.1794C17.6661 42.7191 17.0471 43.2723 16.4377 43.2748ZM25.8829 21.6374C25.8692 21.6511 25.9237 21.6589 25.9237 21.6782L25.8829 21.6374Z" fill="#CEA666"/>
</svg>
