<svg width="35" height="35" viewBox="0 0 35 35" fill="none" xmlns="http://www.w3.org/2000/svg">
<path fill-rule="evenodd" clip-rule="evenodd" d="M17.5 35C27.165 35 35 27.165 35 17.5C35 7.83502 27.165 0 17.5 0C7.83496 0 0 7.83502 0 17.5C0 27.165 7.83496 35 17.5 35ZM24 10V9H11V10H12V15H23V10H24ZM24 17V16H11V17H16V18.256C14.2522 18.8738 13 20.5406 13 22.5C13 24.9853 15.0148 27 17.5 27C19.9852 27 22 24.9853 22 22.5C22 20.5406 20.7478 18.8738 19 18.256V17H24ZM18.3669 21.3067L17.5 20L16.6331 21.3067L15.1223 21.7275L16.0972 22.9558L16.0305 24.5225L17.5 23.975L18.9695 24.5225L18.9028 22.9558L19.8777 21.7275L18.3669 21.3067Z" fill="#CEA666"/>
</svg>
