<svg width="35" height="35" viewBox="0 0 35 35" fill="none" xmlns="http://www.w3.org/2000/svg">
<path fill-rule="evenodd" clip-rule="evenodd" d="M17.5 35C27.165 35 35 27.165 35 17.5C35 7.83502 27.165 0 17.5 0C7.83496 0 0 7.83502 0 17.5C0 27.165 7.83496 35 17.5 35ZM18.937 11.4351L25.5612 18.0593C26.1538 18.6519 26.1538 19.5972 25.5686 20.1823L20.1898 25.5612C19.6046 26.1463 18.6519 26.1463 18.0668 25.5612L11.4426 18.937C11.1576 18.6594 11 18.2768 11 17.8792V12.5004C11 11.6752 11.6752 11 12.5004 11H17.8793C18.2769 11 18.6594 11.1575 18.937 11.4351ZM13.2506 14.3759C13.2506 14.9985 13.7532 15.5011 14.3759 15.5011C14.9985 15.5011 15.5011 14.9985 15.5011 14.3759C15.5011 13.7532 14.9985 13.2505 14.3759 13.2505C13.7532 13.2505 13.2506 13.7532 13.2506 14.3759Z" fill="#CEA666"/>
</svg>
