<svg width="35" height="35" viewBox="0 0 35 35" fill="none" xmlns="http://www.w3.org/2000/svg">
<path fill-rule="evenodd" clip-rule="evenodd" d="M17.5 35C27.165 35 35 27.165 35 17.5C35 7.83502 27.165 0 17.5 0C7.83502 0 0 7.83502 0 17.5C0 27.165 7.83502 35 17.5 35ZM23.875 13.75C24.5811 13.3574 25 12.8711 25 12.3438C25 11.0488 22.4805 10 19.375 10C16.2695 10 13.75 11.0488 13.75 12.3438C13.75 12.8711 14.1689 13.3574 14.875 13.75L14.9072 13.7676C15.1445 13.7559 15.3818 13.75 15.625 13.75C17.2715 13.75 18.8066 14.0254 19.9609 14.5088C20.0752 14.5527 20.1836 14.6025 20.292 14.6553C21.751 14.5557 23.0225 14.2217 23.875 13.75ZM15.625 14.6875C15.3145 14.6875 15.0068 14.6992 14.708 14.7197C14.377 14.7432 14.0576 14.7783 13.75 14.8223C11.5645 15.1416 10 16.0117 10 17.0312C10 17.5586 10.4189 18.0449 11.1221 18.4346C11.1748 18.4639 11.2275 18.4932 11.2832 18.5195C12.3174 19.041 13.8789 19.3721 15.625 19.3721C17.4648 19.3721 19.0996 19.0029 20.125 18.4346C20.1294 18.4316 20.1338 18.4294 20.1382 18.4272C20.1426 18.425 20.147 18.4229 20.1514 18.4199C20.1528 18.4185 20.155 18.4177 20.1572 18.417C20.1594 18.4163 20.1616 18.4155 20.1631 18.4141C20.6904 18.1152 21.0537 17.7607 21.1885 17.374C21.2295 17.2627 21.25 17.1484 21.25 17.0312C21.25 16.4951 20.8193 16.0029 20.0928 15.6074C19.0645 15.0479 17.4473 14.6875 15.625 14.6875ZM21.4814 15.4668C21.877 15.8623 22.1875 16.3896 22.1875 17.0312V17.0342C22.1875 17.0842 22.1849 17.1317 22.1821 17.1815L22.1816 17.1895C22.7676 17.0488 23.2891 16.8643 23.7168 16.6475C24.5166 16.2432 25 15.7217 25 15.1562V14.1191C24.6367 14.4209 24.1914 14.667 23.7139 14.8662C23.0693 15.1328 22.3105 15.3379 21.4814 15.4668ZM20.125 21.25C20.8311 20.8574 21.25 20.3711 21.25 19.8438V18.8066C21.2354 18.8181 21.2208 18.8299 21.2061 18.8419C21.1794 18.8635 21.1523 18.8855 21.124 18.9062C20.9658 19.0234 20.7988 19.1348 20.6201 19.2344C20.4121 19.3516 20.1924 19.46 19.9639 19.5537C18.8066 20.0371 17.2715 20.3125 15.625 20.3125C13.9785 20.3125 12.4434 20.0371 11.2861 19.5537C10.8086 19.3545 10.3662 19.1084 10 18.8066V19.8438C10 20.3711 10.4189 20.8574 11.125 21.25C12.1504 21.8184 13.7852 22.1875 15.625 22.1875C17.3711 22.1875 18.9326 21.8564 19.9639 21.335C19.982 21.3254 19.9998 21.3162 20.0173 21.3071C20.0538 21.2882 20.0894 21.2698 20.125 21.25ZM22.1875 18.1475V19.8438C22.1875 19.8965 22.1846 19.9492 22.1816 19.999C23.2451 19.7441 24.0859 19.3516 24.5635 18.874C24.8535 18.584 25 18.2764 25 17.9688V16.9316C24.6367 17.2334 24.1914 17.4795 23.7139 17.6787C23.2568 17.8691 22.7441 18.0244 22.1875 18.1475ZM19.9639 22.3662C18.8066 22.8496 17.2715 23.125 15.625 23.125C13.9785 23.125 12.4434 22.8496 11.2861 22.3662C10.8086 22.167 10.3662 21.9209 10 21.6191V22.6562C10 23.9512 12.5195 25 15.625 25C18.7305 25 21.25 23.9512 21.25 22.6562V21.6191C20.8867 21.9209 20.4414 22.167 19.9639 22.3662Z" fill="#10A76B"/>
</svg>
