<svg width="17" height="28" viewBox="0 0 17 28" fill="none" xmlns="http://www.w3.org/2000/svg">
<path d="M3.25391 17.0752L7.89504 22.4913C7.96985 22.5786 8.06265 22.6486 8.16707 22.6967C8.27149 22.7447 8.38507 22.7695 8.5 22.7695C8.61493 22.7695 8.72851 22.7447 8.83293 22.6967C8.93735 22.6486 9.03015 22.5786 9.10496 22.4913L13.7461 17.0752C14.189 16.5583 13.8218 15.7597 13.1411 15.7597L3.85754 15.7597C3.17688 15.7597 2.80965 16.5583 3.25391 17.0752Z" fill="#CEA666"/>
<path d="M3.25391 10.6894L7.89504 5.27331C7.96985 5.18605 8.06265 5.11602 8.16707 5.068C8.27149 5.01998 8.38507 4.99512 8.5 4.99512C8.61493 4.99512 8.72851 5.01998 8.83293 5.068C8.93735 5.11602 9.03015 5.18605 9.10496 5.27331L13.7461 10.6894C14.189 11.2064 13.8218 12.0049 13.1411 12.0049L3.85754 12.0049C3.17688 12.0049 2.80965 11.2064 3.25391 10.6894Z" fill="#CEA666"/>
</svg>
