<svg width="35" height="35" viewBox="0 0 35 35" fill="none" xmlns="http://www.w3.org/2000/svg">
<path fill-rule="evenodd" clip-rule="evenodd" d="M17.5 35C27.165 35 35 27.165 35 17.5C35 7.83502 27.165 0 17.5 0C7.83496 0 0 7.83502 0 17.5C0 27.165 7.83496 35 17.5 35ZM8.62244 11.6346C9.021 11.2283 9.5614 11 10.125 11H18.625C19.1886 11 19.7291 11.2283 20.1277 11.6346C20.5261 12.0409 20.75 12.592 20.75 13.1666H10.125V19.6666C9.5614 19.6666 9.021 19.4384 8.62244 19.032C8.22388 18.6257 8 18.0746 8 17.5V13.1666C8 12.592 8.22388 12.0409 8.62244 11.6346ZM12.8724 15.9679C12.4739 16.3743 12.25 16.9254 12.25 17.5V21.8333C12.25 22.408 12.4739 22.959 12.8724 23.3654C13.271 23.7717 13.8114 24 14.375 24H22.875C23.4386 24 23.9791 23.7717 24.3777 23.3654C24.7761 22.959 25 22.408 25 21.8333V17.5C25 16.9254 24.7761 16.3743 24.3777 15.9679C23.9791 15.5616 23.4386 15.3333 22.875 15.3333H14.375C13.8114 15.3333 13.271 15.5616 12.8724 15.9679ZM20.1277 21.1987C19.7291 21.605 19.1886 21.8333 18.625 21.8333C18.0614 21.8333 17.521 21.605 17.1224 21.1987C16.7239 20.7924 16.5 20.2413 16.5 19.6666C16.5 19.092 16.7239 18.5409 17.1224 18.1346C17.521 17.7283 18.0614 17.5 18.625 17.5C19.1886 17.5 19.7291 17.7283 20.1277 18.1346C20.5261 18.5409 20.75 19.092 20.75 19.6666C20.75 20.2413 20.5261 20.7924 20.1277 21.1987Z" fill="#CEA666"/>
</svg>
