<svg width="156" height="38" viewBox="0 0 156 38" fill="none" xmlns="http://www.w3.org/2000/svg">
<path d="M16 33C16 33 3.5 26 3.5 17.5C3.5 15.9974 4.02062 14.5411 4.97328 13.3791C5.92593 12.217 7.25178 11.4209 8.72525 11.1262C10.1987 10.8315 11.7288 11.0565 13.0551 11.7627C14.3814 12.469 15.4221 13.613 16 15V15C16.5779 13.613 17.6186 12.469 18.9449 11.7627C20.2712 11.0565 21.8013 10.8315 23.2748 11.1262C24.7482 11.4209 26.0741 12.217 27.0267 13.3791C27.9794 14.5411 28.5 15.9974 28.5 17.5C28.5 26 16 33 16 33Z" stroke="white" stroke-width="2" stroke-linecap="round" stroke-linejoin="round"/>
<path d="M72 35C73.1046 35 74 34.1046 74 33C74 31.8954 73.1046 31 72 31C70.8954 31 70 31.8954 70 33C70 34.1046 70.8954 35 72 35Z" fill="white"/>
<path d="M85 35C86.1046 35 87 34.1046 87 33C87 31.8954 86.1046 31 85 31C83.8954 31 83 31.8954 83 33C83 34.1046 83.8954 35 85 35Z" fill="white"/>
<path d="M67.2875 15H89.7125L86.4125 26.55C86.2948 26.9692 86.0426 27.3381 85.6948 27.6001C85.3471 27.862 84.9229 28.0025 84.4875 28H72.5125C72.0771 28.0025 71.6529 27.862 71.3052 27.6001C70.9574 27.3381 70.7052 26.9692 70.5875 26.55L66.0625 10.725C66.0027 10.5159 65.8764 10.3321 65.7027 10.2012C65.529 10.0704 65.3174 9.99977 65.1 10H63" stroke="white" stroke-width="2" stroke-linecap="round" stroke-linejoin="round"/>
<path d="M140 34C146.627 34 152 28.6274 152 22C152 15.3726 146.627 10 140 10C133.373 10 128 15.3726 128 22C128 28.6274 133.373 34 140 34Z" stroke="white" stroke-width="2" stroke-linecap="round" stroke-linejoin="round"/>
<path d="M140 26C142.761 26 145 23.7614 145 21C145 18.2386 142.761 16 140 16C137.239 16 135 18.2386 135 21C135 23.7614 137.239 26 140 26Z" stroke="white" stroke-width="2" stroke-linecap="round" stroke-linejoin="round"/>
<path d="M131.975 30.925C132.727 29.4431 133.875 28.1984 135.292 27.3289C136.708 26.4595 138.338 25.9993 140 25.9993C141.662 25.9993 143.291 26.4595 144.708 27.3289C146.124 28.1984 147.272 29.4431 148.025 30.925" stroke="white" stroke-width="2" stroke-linecap="round" stroke-linejoin="round"/>
<circle cx="86.5" cy="12.5" r="12.5" fill="white"/>
<path d="M89.5806 11.8184V13.4443C89.5806 14.3184 89.5024 15.0557 89.3462 15.6562C89.1899 16.2568 88.9653 16.7402 88.6724 17.1064C88.3794 17.4727 88.0254 17.7388 87.6104 17.9048C87.2002 18.0659 86.7363 18.1465 86.2188 18.1465C85.8086 18.1465 85.4302 18.0952 85.0835 17.9927C84.7368 17.8901 84.4243 17.7266 84.146 17.502C83.8726 17.2725 83.6382 16.9746 83.4429 16.6084C83.2476 16.2422 83.0986 15.7979 82.9961 15.2754C82.8936 14.7529 82.8423 14.1426 82.8423 13.4443V11.8184C82.8423 10.9443 82.9204 10.2119 83.0767 9.62109C83.2378 9.03027 83.4648 8.55664 83.7578 8.2002C84.0508 7.83887 84.4023 7.58008 84.8125 7.42383C85.2275 7.26758 85.6914 7.18945 86.2041 7.18945C86.6191 7.18945 87 7.24072 87.3467 7.34326C87.6982 7.44092 88.0107 7.59961 88.2842 7.81934C88.5576 8.03418 88.7896 8.32227 88.98 8.68359C89.1753 9.04004 89.3242 9.47705 89.4268 9.99463C89.5293 10.5122 89.5806 11.1201 89.5806 11.8184ZM88.2183 13.6641V11.5913C88.2183 11.1128 88.189 10.6929 88.1304 10.3315C88.0767 9.96533 87.9961 9.65283 87.8887 9.39404C87.7812 9.13525 87.6445 8.92529 87.4785 8.76416C87.3174 8.60303 87.1294 8.48584 86.9146 8.4126C86.7046 8.33447 86.4678 8.29541 86.2041 8.29541C85.8818 8.29541 85.5962 8.35645 85.3472 8.47852C85.0981 8.5957 84.8882 8.78369 84.7173 9.04248C84.5513 9.30127 84.4243 9.64062 84.3364 10.0605C84.2485 10.4805 84.2046 10.9907 84.2046 11.5913V13.6641C84.2046 14.1426 84.2314 14.5649 84.2852 14.9312C84.3438 15.2974 84.4292 15.6147 84.5415 15.8833C84.6538 16.147 84.7905 16.3643 84.9517 16.5352C85.1128 16.7061 85.2983 16.833 85.5083 16.916C85.7231 16.9941 85.96 17.0332 86.2188 17.0332C86.5508 17.0332 86.8413 16.9697 87.0903 16.8428C87.3394 16.7158 87.5469 16.5181 87.7129 16.2495C87.8838 15.9761 88.0107 15.627 88.0938 15.2021C88.1768 14.7725 88.2183 14.2598 88.2183 13.6641Z" fill="black"/>
</svg>
