<svg width="245" height="44" viewBox="0 0 245 44" fill="none" xmlns="http://www.w3.org/2000/svg">
<path d="M50.8241 12.8303C41.53 12.8303 33.9658 19.82 33.9658 28.4119C33.9658 37.0038 41.53 43.9935 50.8241 43.9935C60.1245 43.9935 67.6823 37.0038 67.6823 28.4119C67.6887 19.82 60.1245 12.8303 50.8241 12.8303ZM40.9874 34.4569C36.6532 27.397 37.5341 18.9455 42.9599 15.6134C44.4536 14.6942 46.1451 14.2602 47.8941 14.2602C52.4901 14.2602 57.5201 17.2603 60.6607 22.3733C62.7672 25.8012 63.7183 29.6567 63.3353 33.2185C62.9587 36.7676 61.3054 39.6082 58.6883 41.2168C53.2689 44.5489 45.3281 41.5168 40.9874 34.4569Z" fill="white"/>
<path d="M100.498 12.8303C91.2038 12.8303 83.6396 19.82 83.6396 28.4119C83.6396 37.0038 91.2038 43.9935 100.498 43.9935C109.798 43.9935 117.356 37.0038 117.356 28.4119C117.363 19.82 109.798 12.8303 100.498 12.8303ZM90.6613 34.4569C86.327 27.397 87.2079 18.9455 92.6337 15.6134C94.1274 14.6942 95.819 14.2602 97.568 14.2602C102.164 14.2602 107.194 17.2603 110.335 22.3733C112.441 25.8012 113.392 29.6567 113.009 33.2185C112.633 36.7676 110.979 39.6082 108.362 41.2168C102.943 44.5489 95.0019 41.5168 90.6613 34.4569Z" fill="white"/>
<path d="M181.834 12.8303C172.533 12.8303 164.976 19.82 164.976 28.4119C164.976 37.0038 172.54 43.9935 181.834 43.9935C191.128 43.9935 198.692 37.0038 198.692 28.4119C198.692 19.82 191.128 12.8303 181.834 12.8303ZM171.991 34.4569C167.657 27.397 168.537 18.9455 173.963 15.6134C175.457 14.6942 177.149 14.2602 178.898 14.2602C183.494 14.2602 188.524 17.2603 191.664 22.3733C195.998 29.4332 195.117 37.8847 189.692 41.2168C184.272 44.5489 176.331 41.5168 171.991 34.4569Z" fill="white"/>
<path d="M9.2813 16.0794C14.5028 12.8686 22.1564 15.7857 26.3374 22.5903L26.4523 22.7755L30.9717 19.8838L30.8377 19.6987C27.6907 15.4028 22.4692 12.8367 16.8583 12.8367C7.5642 12.8367 0 19.8264 0 28.4183C0 37.0102 7.5642 43.9999 16.8583 43.9999C21.0202 43.9999 27.0013 42.3849 30.1866 37.8209L30.3078 37.6421L29.478 37.074L29.3567 37.2527C28.9865 37.8017 26.9247 40.5976 22.7373 41.8232H22.7309C22.5139 41.8934 22.2968 41.9508 22.0734 42.0019C21.9138 42.0402 21.7606 42.0721 21.6202 42.0913C16.7051 42.9594 10.7175 39.6656 7.37908 34.2335C3.20441 27.4353 4.05339 19.2902 9.2813 16.0794Z" fill="white"/>
<path d="M78.3802 0H72.8906V43.6936H78.3802V0Z" fill="white"/>
<path d="M144.62 18.8434L144.958 19.0924V12.9963H138.888C132.268 13.341 129.147 19.6094 128.106 22.3096V12.9963H122.623V43.7H128.106V29.3886C128.074 24.5309 128.904 21.6521 131.062 19.1115C132.389 17.5476 133.953 16.5646 135.581 16.2774C140.043 15.4794 144.575 18.8051 144.62 18.8434Z" fill="white"/>
<path d="M244.345 0H238.855V43.6936H244.345V0Z" fill="white"/>
<path d="M226.07 20.4968C226.07 22.4054 226.07 24.78 225.528 26.7333C224.347 30.9782 220.951 40.9425 214.963 41.6957C213.61 41.8617 212.5 41.5744 211.657 40.834C209.997 39.3722 209.87 36.5891 209.87 35.772V12.9837H204.386V35.7465C204.374 35.8997 204.048 39.5126 206.244 41.9191C207.482 43.2851 209.282 43.9809 211.58 43.9809C218.857 43.9809 223.658 36.3657 225.917 28.7312V43.6809H231.407V12.9773H225.917L226.07 20.4968Z" fill="white"/>
<path d="M167.638 13.6793V12.8303H167.428C167.428 12.8303 166.604 12.8367 165.723 12.8367H165.711C153.94 12.8367 152.172 19.5391 150.123 27.2948C149.606 29.2545 149.069 31.2844 148.348 33.3398C147.097 36.9208 145.891 38.938 144.186 40.304C141.946 42.1041 138.971 43.1318 136.028 43.1318H135.326V43.9935H135.537C135.537 43.9935 137.835 43.9808 138.601 43.9808C150.863 43.9808 152.797 38.5741 156.002 26.3373C157.304 21.3711 158.446 18.1221 160.444 16.2135C162.104 14.624 164.587 13.6793 167.089 13.6793H167.638Z" fill="white"/>
</svg>
