<svg width="487" height="34" viewBox="0 0 487 34" fill="none" xmlns="http://www.w3.org/2000/svg">
<rect x="76" y="16.1699" width="318" height="1.66057" fill="#CFCFCF"/>
<rect x="76" y="16.1699" width="41.2376" height="1.66057" fill="black"/>
<path d="M42 1L58 17L42 33" stroke="#CFCFCF" stroke-width="1.5"/>
<path d="M18 1L2 17L18 33" stroke="black" stroke-width="1.5"/>
<path d="M423.129 15.1094V17.7109C423.129 19.1094 423.004 20.2891 422.754 21.25C422.504 22.2109 422.145 22.9844 421.676 23.5703C421.207 24.1562 420.641 24.582 419.977 24.8477C419.32 25.1055 418.578 25.2344 417.75 25.2344C417.094 25.2344 416.488 25.1523 415.934 24.9883C415.379 24.8242 414.879 24.5625 414.434 24.2031C413.996 23.8359 413.621 23.3594 413.309 22.7734C412.996 22.1875 412.758 21.4766 412.594 20.6406C412.43 19.8047 412.348 18.8281 412.348 17.7109V15.1094C412.348 13.7109 412.473 12.5391 412.723 11.5938C412.98 10.6484 413.344 9.89062 413.812 9.32031C414.281 8.74219 414.844 8.32812 415.5 8.07812C416.164 7.82813 416.906 7.70312 417.727 7.70312C418.391 7.70312 419 7.78516 419.555 7.94922C420.117 8.10547 420.617 8.35938 421.055 8.71094C421.492 9.05469 421.863 9.51562 422.168 10.0938C422.48 10.6641 422.719 11.3633 422.883 12.1914C423.047 13.0195 423.129 13.9922 423.129 15.1094ZM420.949 18.0625V14.7461C420.949 13.9805 420.902 13.3086 420.809 12.7305C420.723 12.1445 420.594 11.6445 420.422 11.2305C420.25 10.8164 420.031 10.4805 419.766 10.2227C419.508 9.96484 419.207 9.77734 418.863 9.66016C418.527 9.53516 418.148 9.47266 417.727 9.47266C417.211 9.47266 416.754 9.57031 416.355 9.76562C415.957 9.95312 415.621 10.2539 415.348 10.668C415.082 11.082 414.879 11.625 414.738 12.2969C414.598 12.9688 414.527 13.7852 414.527 14.7461V18.0625C414.527 18.8281 414.57 19.5039 414.656 20.0898C414.75 20.6758 414.887 21.1836 415.066 21.6133C415.246 22.0352 415.465 22.3828 415.723 22.6562C415.98 22.9297 416.277 23.1328 416.613 23.2656C416.957 23.3906 417.336 23.4531 417.75 23.4531C418.281 23.4531 418.746 23.3516 419.145 23.1484C419.543 22.9453 419.875 22.6289 420.141 22.1992C420.414 21.7617 420.617 21.2031 420.75 20.5234C420.883 19.8359 420.949 19.0156 420.949 18.0625ZM433.043 7.84375V25H430.875V10.5508L426.504 12.1445V10.1875L432.703 7.84375H433.043Z" fill="black"/>
<path d="M453.152 7.9375L446.039 26.4648H444.176L451.301 7.9375H453.152ZM471.949 15.1094V17.7109C471.949 19.1094 471.824 20.2891 471.574 21.25C471.324 22.2109 470.965 22.9844 470.496 23.5703C470.027 24.1562 469.461 24.582 468.797 24.8477C468.141 25.1055 467.398 25.2344 466.57 25.2344C465.914 25.2344 465.309 25.1523 464.754 24.9883C464.199 24.8242 463.699 24.5625 463.254 24.2031C462.816 23.8359 462.441 23.3594 462.129 22.7734C461.816 22.1875 461.578 21.4766 461.414 20.6406C461.25 19.8047 461.168 18.8281 461.168 17.7109V15.1094C461.168 13.7109 461.293 12.5391 461.543 11.5938C461.801 10.6484 462.164 9.89062 462.633 9.32031C463.102 8.74219 463.664 8.32812 464.32 8.07812C464.984 7.82813 465.727 7.70312 466.547 7.70312C467.211 7.70312 467.82 7.78516 468.375 7.94922C468.938 8.10547 469.438 8.35938 469.875 8.71094C470.312 9.05469 470.684 9.51562 470.988 10.0938C471.301 10.6641 471.539 11.3633 471.703 12.1914C471.867 13.0195 471.949 13.9922 471.949 15.1094ZM469.77 18.0625V14.7461C469.77 13.9805 469.723 13.3086 469.629 12.7305C469.543 12.1445 469.414 11.6445 469.242 11.2305C469.07 10.8164 468.852 10.4805 468.586 10.2227C468.328 9.96484 468.027 9.77734 467.684 9.66016C467.348 9.53516 466.969 9.47266 466.547 9.47266C466.031 9.47266 465.574 9.57031 465.176 9.76562C464.777 9.95312 464.441 10.2539 464.168 10.668C463.902 11.082 463.699 11.625 463.559 12.2969C463.418 12.9688 463.348 13.7852 463.348 14.7461V18.0625C463.348 18.8281 463.391 19.5039 463.477 20.0898C463.57 20.6758 463.707 21.1836 463.887 21.6133C464.066 22.0352 464.285 22.3828 464.543 22.6562C464.801 22.9297 465.098 23.1328 465.434 23.2656C465.777 23.3906 466.156 23.4531 466.57 23.4531C467.102 23.4531 467.566 23.3516 467.965 23.1484C468.363 22.9453 468.695 22.6289 468.961 22.1992C469.234 21.7617 469.438 21.2031 469.57 20.5234C469.703 19.8359 469.77 19.0156 469.77 18.0625ZM483.059 7.91406H483.246V9.75391H483.059C481.91 9.75391 480.949 9.94141 480.176 10.3164C479.402 10.6836 478.789 11.1797 478.336 11.8047C477.883 12.4219 477.555 13.1172 477.352 13.8906C477.156 14.6641 477.059 15.4492 477.059 16.2461V18.7539C477.059 19.5117 477.148 20.1836 477.328 20.7695C477.508 21.3477 477.754 21.8359 478.066 22.2344C478.379 22.6328 478.73 22.9336 479.121 23.1367C479.52 23.3398 479.934 23.4414 480.363 23.4414C480.863 23.4414 481.309 23.3477 481.699 23.1602C482.09 22.9648 482.418 22.6953 482.684 22.3516C482.957 22 483.164 21.5859 483.305 21.1094C483.445 20.6328 483.516 20.1094 483.516 19.5391C483.516 19.0312 483.453 18.543 483.328 18.0742C483.203 17.5977 483.012 17.1758 482.754 16.8086C482.496 16.4336 482.172 16.1406 481.781 15.9297C481.398 15.7109 480.941 15.6016 480.41 15.6016C479.809 15.6016 479.246 15.75 478.723 16.0469C478.207 16.3359 477.781 16.7188 477.445 17.1953C477.117 17.6641 476.93 18.1758 476.883 18.7305L475.734 18.7188C475.844 17.8438 476.047 17.0977 476.344 16.4805C476.648 15.8555 477.023 15.3477 477.469 14.957C477.922 14.5586 478.426 14.2695 478.98 14.0898C479.543 13.9023 480.137 13.8086 480.762 13.8086C481.613 13.8086 482.348 13.9688 482.965 14.2891C483.582 14.6094 484.09 15.0391 484.488 15.5781C484.887 16.1094 485.18 16.7109 485.367 17.3828C485.562 18.0469 485.66 18.7305 485.66 19.4336C485.66 20.2383 485.547 20.9922 485.32 21.6953C485.094 22.3984 484.754 23.0156 484.301 23.5469C483.855 24.0781 483.305 24.4922 482.648 24.7891C481.992 25.0859 481.23 25.2344 480.363 25.2344C479.441 25.2344 478.637 25.0469 477.949 24.6719C477.262 24.2891 476.691 23.7812 476.238 23.1484C475.785 22.5156 475.445 21.8125 475.219 21.0391C474.992 20.2656 474.879 19.4805 474.879 18.6836V17.6641C474.879 16.4609 475 15.2812 475.242 14.125C475.484 12.9688 475.902 11.9219 476.496 10.9844C477.098 10.0469 477.93 9.30078 478.992 8.74609C480.055 8.19141 481.41 7.91406 483.059 7.91406Z" fill="#CFCFCF"/>
</svg>
