<svg width="166" height="57" viewBox="0 0 166 57" fill="none" xmlns="http://www.w3.org/2000/svg">
<path fill-rule="evenodd" clip-rule="evenodd" d="M37.0248 0.13569C36.0364 0.341418 36.107 0.337989 34.9313 0.232554C34.3467 0.18005 34.0493 0.243483 33.9891 0.433567C33.9246 0.636937 33.7554 0.660725 33.3574 0.522501C32.7161 0.300058 32.5102 0.410423 32.5102 0.977032C32.5102 1.53764 32.2541 1.50314 32.0181 0.910813C31.8653 0.527002 31.8237 0.505143 31.8141 0.803663C31.7989 1.27662 31.2709 1.30255 31.2709 0.83045C31.2709 0.551218 31.1569 0.5105 30.6956 0.624508C30.3792 0.702942 29.765 0.827236 29.3311 0.900955C28.7254 1.0036 28.6226 1.07218 28.8885 1.19562C29.079 1.28391 28.312 1.35999 27.1839 1.36449C25.5801 1.37092 24.8817 1.47249 23.9805 1.83059C23.0707 2.19211 22.6662 2.24976 22.0594 2.10468C21.3948 1.94545 21.2404 1.98167 20.9182 2.3717C20.6536 2.69207 20.2168 2.86416 19.4098 2.96638C18.7851 3.04545 18.1907 3.21839 18.0891 3.35083C17.9537 3.52742 18.0808 3.55956 18.565 3.47084C19.23 3.34912 19.6349 3.59963 19.1425 3.82829C18.997 3.8958 18.878 4.04945 18.878 4.16967C18.878 4.50119 18.2984 5.25039 18.042 5.25039C17.9175 5.25039 17.8157 5.34682 17.8157 5.46469C17.8157 5.84057 17.3039 5.69463 17.1138 5.26453C16.859 4.68828 16.8801 4.60749 17.2846 4.60749C17.6833 4.60749 17.7929 3.80622 17.4174 3.63735C16.9969 3.44855 16.1353 3.87565 16.0797 4.3004C16.0499 4.5282 15.7114 4.95101 15.3272 5.23989C14.8298 5.61405 14.629 5.91257 14.629 6.27795C14.629 6.5994 14.5049 6.82999 14.2962 6.896C14.0502 6.97379 13.9385 7.26202 13.8677 8.00093C13.7739 8.98006 13.941 9.58825 14.1768 9.12643C14.3087 8.8682 15.227 8.79834 15.1263 9.05421C14.7283 10.0646 13.6781 11.9588 13.4702 12.0411C13.1854 12.1541 12.4684 11.2454 12.5755 10.9075C12.6277 10.7427 12.6017 10.6079 12.5179 10.6079C12.434 10.6079 12.3195 10.7525 12.2634 10.9293C12.2044 11.1153 11.9397 11.2508 11.6352 11.2508C11.3459 11.2508 11.0598 11.3472 10.9996 11.4651C10.7946 11.8667 10.1624 11.6807 9.56169 11.0423C9.00348 10.4491 7.10187 9.5756 6.90022 9.81969C6.77452 9.97163 7.19517 10.8938 7.48463 11.1008C7.84704 11.3599 7.77179 11.7443 7.38283 11.6213C7.12949 11.5412 7.04769 11.6177 7.06628 11.9177C7.08045 12.1442 7.22438 12.3223 7.39346 12.3223C7.55952 12.3223 7.8134 12.3771 7.95787 12.4442C8.13332 12.5257 8.21139 12.4399 8.19351 12.1845C8.16076 11.7132 8.58212 11.5937 9.61463 11.781C10.6146 11.9625 10.5386 12.3919 9.48096 12.5366C8.46651 12.6755 7.63299 13.3239 7.92387 13.748C8.0956 13.9985 8.16182 13.9705 8.32541 13.5772C8.54635 13.0453 9.46945 12.5764 9.64809 12.9054C9.70988 13.019 10.0084 13.1705 10.3115 13.2416C10.7774 13.3514 10.8932 13.2903 11.0602 12.8469C11.1687 12.5582 11.3332 12.3223 11.4254 12.3223C11.742 12.3223 11.7331 13.0728 11.4072 13.876C11.0719 14.7021 10.7817 14.8658 10.4228 14.4314C10.2684 14.2446 10.1576 14.2441 9.97278 14.4297C9.83805 14.5651 9.6773 14.6147 9.61551 14.5401C9.41616 14.2988 8.95249 14.9425 9.05216 15.3225C9.10528 15.525 9.02738 15.8124 8.87919 15.9613C8.40171 16.4409 8.55273 17.3035 9.22814 17.9558C9.72528 18.4358 9.91436 18.5096 10.1904 18.3308C10.5414 18.1035 11.2652 18.0242 11.2652 18.2132C11.2652 18.636 10.3095 21.0812 10.1815 20.9856C10.0928 20.9189 10.0659 20.7749 10.122 20.6652C10.2573 20.4001 9.56753 20.4138 8.73774 20.6928C7.82013 21.0012 8.07631 21.3229 9.23965 21.3229C10.1767 21.3229 10.2029 21.3392 10.2029 21.9229C10.2029 22.2529 10.2985 22.6387 10.4154 22.7801C10.5806 22.9801 10.492 23.0388 10.017 23.0444L9.40625 23.0516L9.82141 23.4702C10.0496 23.7005 10.5476 23.9903 10.9279 24.1141C11.3082 24.2382 11.6193 24.4379 11.6193 24.5584C11.6193 24.6786 11.5396 24.7174 11.4422 24.6445C11.3449 24.5717 11.1706 24.5828 11.0552 24.6692C10.9398 24.7555 10.5613 24.8335 10.2143 24.8425L9.58329 24.8588L9.53142 26.2788C9.49459 27.2869 9.57851 28.0144 9.82088 28.7859C10.0085 29.3838 10.1165 29.9281 10.0608 29.9954C9.92374 30.1615 9.88214 30.9683 10.0112 30.9589C10.068 30.9546 10.3136 30.8134 10.557 30.6449C11.2705 30.1512 11.4465 30.2369 11.3273 31.02C11.2691 31.4029 11.1018 31.8324 10.9555 31.974C10.7854 32.1388 10.7376 32.3703 10.8229 32.6169C10.8962 32.8289 10.94 33.9293 10.9203 35.0625C10.8904 36.7671 10.9324 37.1451 11.1632 37.2522C11.3417 37.3352 11.4422 37.6453 11.4422 38.1124C11.4422 38.8089 11.7972 39.4659 12.0245 39.1908C12.0835 39.1194 12.1019 39.53 12.0658 40.1033C12.0295 40.6765 12.0419 41.0192 12.0934 40.8647C12.1662 40.6467 12.2634 40.6673 12.527 40.956C12.7876 41.2414 12.9156 41.2695 13.0753 41.0762C13.2348 40.8831 13.2068 40.8242 12.9551 40.8242C12.6378 40.8242 12.6376 40.8096 12.9471 40.3956C13.1232 40.1599 13.2134 39.967 13.147 39.967C13.0808 39.967 13.1371 39.7017 13.2723 39.3777C13.4076 39.0536 13.4766 38.6458 13.4258 38.4716C13.3479 38.205 13.4008 38.2093 13.7599 38.4977C13.9945 38.6863 14.1465 38.8933 14.0979 38.9578C14.0492 39.0226 14.1954 39.3151 14.4229 39.608C14.7662 40.0503 14.8027 40.2171 14.6378 40.5897C14.5222 40.8512 14.5102 41.0385 14.609 41.0385C14.8167 41.0385 15.2171 42.4402 15.1146 42.8084C15.0739 42.9545 15.1578 43.1789 15.3012 43.3068C15.4446 43.4348 15.5825 43.8563 15.6077 44.2438C15.6427 44.7823 15.5746 44.973 15.3182 45.054C15.1339 45.1123 14.9831 45.2454 14.9831 45.3496C14.9831 45.6119 15.2272 45.5861 15.4645 45.299C15.6105 45.1222 15.7543 45.2767 16.0122 45.8883C16.45 46.927 17.1076 47.7086 17.1076 47.1904C17.1076 46.9127 17.3115 46.8481 18.1734 46.8531C19.2177 46.8591 19.2445 46.8741 19.4922 47.592C19.8011 48.4865 19.9675 48.543 19.8292 47.7062C19.7273 47.0897 19.7297 47.0877 20.602 47.1038C21.3688 47.1177 21.5122 47.1942 21.7625 47.7223C22.1489 48.5368 22.4943 48.5133 22.3569 47.6818L22.2507 47.0389H23.1167C23.6518 47.0389 24.0112 47.1413 24.0572 47.3068C24.113 47.5071 24.1948 47.5142 24.3817 47.3346C24.791 46.942 26.7608 46.9675 27.0929 47.3698C27.2487 47.5581 27.376 47.6091 27.376 47.4827C27.376 47.3565 27.5837 47.2532 27.8376 47.2532C28.157 47.2532 28.2703 47.344 28.2055 47.5485C28.1369 47.7645 28.2628 47.8356 28.6734 47.8136C28.9823 47.7971 29.3219 47.7161 29.4281 47.634C29.6864 47.4338 43.6388 47.4006 45.8486 47.5948C47.0171 47.6974 47.6199 47.8395 47.679 48.0262C47.7467 48.2396 47.8421 48.248 48.0876 48.0624C48.3259 47.8821 48.8914 47.8843 50.2987 48.0703C51.3387 48.2077 52.283 48.3935 52.397 48.483C52.5112 48.5728 52.0468 48.7072 51.3652 48.782C48.0967 49.1401 46.7308 49.5968 49.3735 49.448C50.8624 49.3642 51.4538 49.3998 51.4538 49.5738C51.4538 49.7073 51.2346 49.8801 50.9669 49.9574C50.6992 50.0348 50.3796 50.1938 50.2569 50.3108C50.1344 50.4278 49.7161 50.472 49.3277 50.409C48.939 50.3457 48.5766 50.3815 48.5221 50.488C48.4678 50.5948 47.8502 50.6957 47.15 50.7124L45.8769 50.7428L47.1162 50.9291C48.8919 51.1957 52.9214 51.2852 53.1642 51.0634C53.2861 50.9518 53.4163 50.9668 53.4844 51.1001C53.5475 51.2237 53.7737 51.3172 53.987 51.3079C54.2004 51.2987 54.2754 51.2424 54.1536 51.183C53.7418 50.9818 53.9292 50.6492 54.4194 50.7116C54.6871 50.7454 54.9978 50.7049 55.1097 50.6211C55.2216 50.5373 55.5004 50.4698 55.7293 50.4709C57.8995 50.4816 57.857 50.49 57.7472 50.0716C57.5851 49.4528 57.9864 49.2655 59.2879 49.3527C60.6431 49.4435 60.9259 49.8231 59.6419 49.828C59.1793 49.8299 58.6815 49.9249 58.5354 50.0391C58.3375 50.194 58.4363 50.2476 58.9233 50.2502C59.2827 50.2519 59.6273 50.3524 59.689 50.4732C59.7508 50.5941 60.0061 50.6665 60.2563 50.634C60.5066 50.6014 60.7426 50.6824 60.781 50.8142C60.8221 50.9554 60.4126 51.171 59.7807 51.3407C58.4301 51.7033 58.761 51.9318 60.4496 51.8026C61.4573 51.7256 61.7234 51.638 61.6503 51.4072C61.597 51.2394 61.6668 51.1106 61.8107 51.1106C61.9642 51.1106 62.0248 50.9831 61.9633 50.7891C61.9072 50.6123 61.9495 50.4677 62.0573 50.4677C62.1652 50.4677 62.2533 50.3805 62.2533 50.2737C62.2533 50.167 61.9449 50.1299 61.5682 50.191C61.1587 50.2577 60.8338 50.2062 60.761 50.0635C60.6867 49.918 60.7793 49.8248 60.9981 49.8248C61.2456 49.8248 61.3251 49.7243 61.2543 49.501C61.1817 49.2717 61.2328 49.2147 61.4295 49.3062C61.5825 49.3771 61.9945 49.3205 62.3452 49.1806C62.6957 49.0404 63.7946 48.899 64.7868 48.8662C65.7791 48.8334 67.1087 48.7306 67.7416 48.6376C68.7989 48.4824 68.8727 48.4974 68.6516 48.8221C68.4351 49.1399 68.4799 49.1757 69.0942 49.1763C69.4701 49.1767 70.0166 49.1806 70.3087 49.1849C70.6009 49.1892 71.6764 49.1474 72.6988 49.0919C75.8305 48.9219 81.2551 48.686 81.8165 48.6954C82.1086 48.7001 83.2638 48.7194 84.3836 48.7381C85.5034 48.7567 86.6387 48.7083 86.9064 48.6305C87.2166 48.5403 87.3933 48.5758 87.3933 48.7282C87.3933 48.8945 88.2583 48.9676 90.226 48.9676C91.9964 48.9676 93.0586 49.0479 93.0586 49.1819C93.0586 49.5005 93.7043 49.4412 93.9892 49.0964C94.1866 48.8574 95.1166 48.7906 98.5608 48.767C100.939 48.7509 104.398 48.6333 106.248 48.5055C108.098 48.3778 110.03 48.2685 110.542 48.2627C111.053 48.257 111.471 48.1832 111.471 48.099C111.471 47.8256 112.439 47.7116 112.574 47.9692C112.659 48.1301 112.706 48.0851 112.708 47.8416C112.709 47.6351 112.87 47.1062 113.064 46.6662C113.259 46.2265 113.418 45.7445 113.418 45.5956C113.418 45.4464 113.558 45.3125 113.728 45.2979C113.899 45.2833 114.317 45.2469 114.658 45.2173C114.999 45.1875 115.596 45.0671 115.986 44.9499C116.375 44.8327 117.037 44.7294 117.455 44.7201C117.874 44.7109 118.372 44.6439 118.562 44.571C118.757 44.496 118.907 44.538 118.907 44.6672C118.907 44.793 118.811 44.8959 118.694 44.8959C118.557 44.8959 118.543 44.9696 118.653 45.1031C118.892 45.392 119.61 45.131 119.504 44.7941C119.41 44.4994 120.22 44.151 120.505 44.3636C120.596 44.4315 120.838 44.3783 121.043 44.2455C121.602 43.8833 121.655 44.151 121.154 44.805C120.905 45.1297 120.598 45.3335 120.456 45.2675C120.317 45.2028 120.09 45.236 119.953 45.341C119.649 45.5741 120.251 45.6016 121.257 45.4003C121.798 45.2921 121.906 45.1931 121.824 44.8804C121.704 44.4248 122.079 43.6101 122.409 43.6101C122.557 43.6101 122.511 43.7759 122.277 44.0792C122.079 44.337 121.917 44.6184 121.917 44.7041C121.917 45.0212 122.376 45.0463 122.956 44.7609C123.285 44.5995 123.81 44.4673 124.123 44.4673C124.437 44.4673 125.064 44.3321 125.518 44.1668C125.971 44.0016 126.344 43.9292 126.345 44.0061C126.347 44.083 126.414 44.0194 126.495 43.8649C126.671 43.5293 129.084 42.8883 129.58 43.0454C129.904 43.148 130.714 42.6847 130.968 42.2516C131.101 42.026 132.425 41.6424 133.117 41.6293C133.386 41.6244 133.763 41.7917 133.954 42.0013C134.271 42.3483 134.312 42.3511 134.413 42.0335C134.489 41.7917 134.65 41.723 134.936 41.8097C135.235 41.9006 135.412 41.8119 135.58 41.4868C135.856 40.9502 136.707 40.8835 137.146 41.364C137.479 41.7294 137.593 41.6777 139.154 40.4517C139.944 39.8309 140.121 39.7797 141.314 39.8251C142.028 39.8523 142.576 39.8296 142.53 39.7743C142.41 39.6284 143.491 39.1111 143.934 39.1025C144.142 39.0984 144.631 38.909 145.021 38.6812C145.41 38.4534 145.837 38.2639 145.969 38.2599C146.101 38.2558 146.858 37.8045 147.651 37.2567C148.444 36.7092 149.268 36.2737 149.482 36.2892C149.696 36.3046 149.92 36.2223 149.979 36.1064C150.04 35.9883 149.882 35.8953 149.622 35.8953C149.229 35.8953 149.176 35.8254 149.277 35.4399C149.357 35.1334 149.332 35.0323 149.2 35.1311C149.092 35.2117 149.004 35.1825 149.004 35.0664C149.004 34.9502 149.143 34.8034 149.314 34.74C149.484 34.6766 149.205 34.6727 148.694 34.7316C148.099 34.8 147.765 34.7565 147.765 34.6101C147.765 34.4845 147.884 34.3262 148.03 34.2585C148.809 33.8965 147.956 33.7214 144.504 33.535C144.185 33.5178 144.183 33.4953 144.467 33.1522C144.703 32.8666 144.798 32.8473 144.908 33.0631C144.986 33.2146 145.181 33.2767 145.343 33.2013C145.506 33.1261 145.595 32.9793 145.541 32.8752C145.488 32.771 145.581 32.7491 145.749 32.8267C145.954 32.9221 146.011 32.8872 145.925 32.7187C145.842 32.5565 145.94 32.4701 146.206 32.4716C146.43 32.4729 146.893 32.4273 147.234 32.37C148.56 32.148 150.512 31.7593 150.565 31.7066C150.691 31.5831 150.142 30.7521 149.935 30.7521C149.812 30.7521 149.712 30.6492 149.712 30.5234C149.712 30.3921 149.863 30.3526 150.066 30.4306C150.393 30.5562 150.51 30.3715 150.441 29.8413C150.43 29.753 150.85 29.6806 151.375 29.6806C152.087 29.6806 152.357 29.5934 152.439 29.3375C152.532 29.0426 152.429 29.0118 151.705 29.118C150.67 29.27 148.804 29.2331 147.942 29.0435C147.893 29.0328 148.008 28.8825 148.197 28.7094C148.449 28.479 148.472 28.3901 148.285 28.3772C148.145 28.3676 147.811 28.3159 147.543 28.2628C147.202 28.1948 147.056 28.2574 147.056 28.4717C147.056 28.6399 146.926 28.8384 146.766 28.9127C146.144 29.2014 146.319 28.7672 147.214 27.799L148.149 26.7875L150.303 26.7299C151.487 26.698 152.683 26.6707 152.96 26.6692C153.383 26.6669 153.429 26.6157 153.248 26.3519C153.07 26.0923 153.098 26.0375 153.408 26.0375C153.615 26.0375 153.784 26.1457 153.784 26.2779C153.784 26.4408 153.856 26.45 154.005 26.3062C154.127 26.1894 154.497 26.0872 154.826 26.0793C155.156 26.0711 155.511 25.962 155.614 25.8367C155.718 25.7113 156.085 25.6072 156.431 25.6052C156.867 25.6027 157.187 25.4389 157.476 25.0695C157.706 24.7768 157.952 24.5374 158.024 24.5374C158.313 24.5374 158.151 22.8245 157.829 22.4717C157.649 22.2748 157.502 21.984 157.502 21.8254C157.502 21.4163 157.197 21.4682 156.992 21.9122C156.838 22.2457 156.798 22.2227 156.636 21.7061C156.457 21.1371 156.427 21.1266 155.18 21.2044L153.907 21.2841L154.421 20.7777L154.935 20.2715L153.961 20.4005L152.987 20.5295L153.341 20.0377L153.696 19.5461L153.278 19.8114C152.743 20.1515 152.37 19.8007 152.721 19.2883C152.918 19.0009 152.876 18.8505 152.439 18.2875L151.925 17.6251L152.633 17.764C153.177 17.8705 153.269 17.8495 153.032 17.6736C152.861 17.5473 152.722 17.3525 152.722 17.2405C152.722 17.1286 152.861 17.0354 153.032 17.0337C153.292 17.0309 153.3 16.9981 153.081 16.8309C152.938 16.7212 152.858 16.5924 152.904 16.5449C153.012 16.4321 159.158 15.7447 160.025 15.7483C160.572 15.7507 160.689 15.6754 160.689 15.3225C160.689 15.0868 160.768 14.8939 160.866 14.8939C160.963 14.8939 161.043 15.0876 161.043 15.3242C161.043 15.6962 161.089 15.7196 161.386 15.4956C161.574 15.3531 161.784 15.039 161.853 14.7975C161.965 14.4025 161.986 14.4177 162.053 14.9479C162.114 15.4223 162.204 15.5192 162.515 15.4431C162.728 15.3911 163.34 15.291 163.875 15.2209C165.687 14.9835 166 14.8712 166 14.4584C166 14.0093 165.284 13.7534 164.311 13.855C163.919 13.8957 163.624 13.81 163.532 13.6282C163.412 13.3946 163.266 13.3848 162.806 13.5792C162.489 13.7129 162.042 13.8224 161.813 13.8224C161.584 13.8224 161.397 13.9188 161.397 14.0367C161.397 14.4745 160.814 14.2298 160.314 13.5819C160.03 13.2138 159.847 13.0687 159.908 13.2594C160.007 13.5706 159.968 13.5751 159.535 13.3025C159.269 13.1358 158.941 13.0505 158.806 13.1133C158.67 13.1761 158.426 13.0961 158.263 12.9356C158.004 12.6808 157.982 12.6913 158.083 13.0188C158.234 13.5056 157.759 13.5284 157.535 13.0451C157.408 12.7687 157.305 12.7457 157.04 12.9345C156.721 13.1615 156.724 13.1788 157.104 13.3083C157.636 13.4894 157.611 13.8224 157.066 13.8224C156.825 13.8224 156.354 13.5299 156.017 13.1722C155.653 12.785 155.36 12.6118 155.293 12.7436C155.23 12.8655 154.925 12.9682 154.615 12.9716C154.145 12.9772 154.102 13.0151 154.359 13.1966C154.53 13.3169 154.669 13.5228 154.669 13.6544C154.669 13.7862 154.616 13.8292 154.551 13.7502C154.485 13.6713 154.236 13.762 153.997 13.952C153.675 14.2068 153.267 14.2748 152.44 14.2109C151.824 14.1636 151.259 14.0513 151.185 13.9619C150.935 13.6597 151.511 13.4501 152.296 13.5573C152.848 13.6327 153.076 13.5858 153.076 13.3966C153.076 13.2241 152.912 13.1675 152.613 13.2367C152.307 13.3074 152.038 13.2095 151.822 12.948C151.643 12.7303 151.45 12.6409 151.395 12.7494C151.339 12.8578 151.184 12.8951 151.049 12.8323C150.914 12.7697 150.617 12.8602 150.39 13.0335C150.158 13.2114 149.837 13.2847 149.654 13.202C149.476 13.1212 149.046 13.0953 148.698 13.1446L148.065 13.2339L148.623 13.5179C148.93 13.6739 149.181 13.9568 149.181 14.1462C149.181 14.3356 149.102 14.4316 149.006 14.3596C148.906 14.2846 148.876 14.3706 148.936 14.5613C149.095 15.0625 148.522 14.9766 148.296 14.4653C148.039 13.8847 147.794 13.9261 147.66 14.5724C147.599 14.8671 147.43 15.1082 147.284 15.1082C147.116 15.1082 147.058 14.9852 147.125 14.7734C147.199 14.539 147.138 14.4574 146.922 14.5002C146.753 14.5341 146.523 14.4929 146.413 14.4087C146.302 14.3245 146.113 14.3993 145.993 14.5748C145.759 14.9157 145.376 15.0233 145.54 14.7021C145.594 14.5964 145.501 14.4466 145.334 14.3691C145.095 14.2578 145.08 14.1908 145.266 14.0519C145.451 13.9135 145.454 13.8408 145.281 13.7112C145.145 13.6098 144.929 13.7433 144.718 14.0594C144.462 14.4424 144.35 14.4976 144.277 14.2778C144.223 14.1158 144.03 13.8022 143.848 13.5813C143.665 13.3604 143.516 13.0466 143.516 12.8842C143.516 12.722 143.392 12.4646 143.24 12.3126C142.785 11.8551 142.601 11.26 142.716 10.6216C142.806 10.1313 142.945 9.99413 143.457 9.89341C144.2 9.74747 144.605 10.1137 144.458 10.7973C144.378 11.167 144.418 11.2294 144.664 11.1151C144.899 11.0058 144.948 10.8076 144.874 10.2573C144.786 9.60046 144.824 9.52396 145.342 9.33002C145.784 9.16458 145.637 9.14422 144.666 9.23615C143.344 9.36152 142.152 9.03685 142.628 8.68112C142.766 8.57761 142.943 8.54075 143.02 8.59882C143.098 8.6569 143.162 8.60225 143.162 8.47753C143.162 8.35281 143.047 8.25059 142.906 8.25059C142.573 8.25059 142.369 7.83892 142.577 7.58626C142.678 7.46453 142.966 7.48254 143.322 7.63276C143.771 7.8222 144.07 7.81427 144.639 7.59719C145.295 7.34688 145.963 7.25238 147.891 7.1373C148.251 7.11587 148.479 6.98 148.513 6.76613C148.586 6.30881 147.473 5.41175 147.039 5.57848C146.854 5.64963 146.702 5.6072 146.702 5.48397C146.702 5.18867 144.278 5.35797 143.962 5.67556C143.788 5.84957 143.703 5.83885 143.634 5.63441C143.569 5.44004 143.44 5.50948 143.201 5.86693L142.861 6.37632L142.732 5.86693C142.607 5.37425 142.597 5.38004 142.435 6.04908C142.243 6.84349 141.643 7.35503 141.337 6.98472C141.197 6.81521 141.227 6.75049 141.444 6.75049C141.647 6.75049 141.745 6.57605 141.745 6.21474C141.745 5.87229 141.646 5.67899 141.469 5.67899C141.317 5.67899 141.239 5.76878 141.295 5.8785C141.351 5.98822 141.32 6.13566 141.226 6.20595C141.132 6.27624 140.968 6.13823 140.863 5.89929C140.632 5.37725 140.292 5.31403 140.454 5.82342C140.546 6.11466 140.503 6.14659 140.227 5.99294C139.602 5.64598 138.019 5.85921 137.698 6.33346C137.439 6.71663 137.142 6.77235 134.929 6.85314C128.844 7.07558 126.769 6.97679 126.478 6.45004C126.388 6.2876 126.347 6.29767 126.345 6.48261C126.342 6.82699 126.016 6.82121 125.455 6.46675C125.205 6.30881 124.817 6.24645 124.57 6.32424C124.328 6.40075 123.154 6.41939 121.961 6.36603C120.276 6.29081 119.792 6.20316 119.792 5.97408C119.792 5.78699 120.003 5.67363 120.367 5.66441C120.914 5.6507 120.923 5.63827 120.539 5.41475C120.244 5.24224 119.893 5.24739 119.225 5.43426C118.723 5.57441 118.267 5.61427 118.212 5.52319C118.099 5.33996 117.276 5.29518 117.136 5.46469C117.088 5.52362 116.47 5.53991 115.764 5.50069C114.802 5.44733 114.481 5.35346 114.481 5.12566C114.481 4.95851 114.356 4.82179 114.203 4.82179C114.006 4.82179 113.958 4.9463 114.038 5.25039C114.177 5.77885 113.915 5.80221 113.302 5.31596C112.868 4.97158 112.832 4.97351 112.603 5.35196C112.404 5.68134 112.288 5.71027 111.938 5.51719C111.667 5.36739 111.453 5.35754 111.344 5.48976C111.235 5.62198 110.869 5.61341 110.325 5.46597C109.858 5.33932 109.434 5.28725 109.382 5.35025C109.33 5.41325 109.42 5.46469 109.583 5.46469C109.745 5.46469 109.878 5.56112 109.878 5.67899C109.878 5.95972 109.145 5.95286 108.523 5.66677C108.119 5.48076 108.077 5.40018 108.29 5.21781C108.5 5.03802 108.488 5.02001 108.225 5.12309C108.047 5.19317 107.858 5.25039 107.806 5.25039C107.753 5.25039 107.809 5.39504 107.93 5.57184C108.111 5.83521 108.099 5.89329 107.863 5.89329C107.705 5.89329 107.576 5.74863 107.576 5.57184C107.576 5.15588 107.29 5.15588 107.158 5.57184C107.089 5.78807 106.837 5.88279 106.387 5.86114C105.875 5.83671 105.829 5.80842 106.191 5.74135C106.797 5.62906 107.081 5.23281 106.855 4.8145C106.709 4.54491 106.658 4.55348 106.502 4.87536C106.401 5.08173 106.124 5.25039 105.885 5.25039C105.647 5.25039 105.452 5.34682 105.452 5.46469C105.452 5.58255 105.255 5.67899 105.014 5.67899C104.697 5.67899 104.606 5.59027 104.68 5.35518C104.754 5.12266 104.702 5.06887 104.495 5.16488C104.337 5.23817 104.099 5.18867 103.965 5.05452C103.779 4.86786 103.698 4.88715 103.619 5.13766C103.471 5.60548 103.031 5.54141 102.922 5.03609C102.865 4.77421 102.68 4.60749 102.446 4.60749C102.137 4.60749 102.087 4.52027 102.183 4.1536C102.269 3.82443 102.236 3.72736 102.062 3.80065C101.93 3.85637 101.845 4.05674 101.873 4.24575C101.918 4.55455 101.872 4.55777 101.43 4.27811C100.996 4.00359 100.913 4.00488 100.739 4.28925C100.563 4.57706 100.517 4.57684 100.319 4.28839C100.197 4.11031 99.9775 3.96459 99.8314 3.96459C99.625 3.96459 99.6113 4.03081 99.7696 4.26182C99.9357 4.50398 99.8494 4.58413 99.3045 4.69321C98.0889 4.93708 97.964 4.93151 97.8779 4.63127C97.826 4.44976 97.871 4.3919 97.9928 4.48319C98.1029 4.56548 98.1929 4.53055 98.1929 4.40583C98.1929 4.28111 97.9739 4.1776 97.706 4.17589C96.7953 4.17053 96.4224 3.94616 96.4224 3.40376C96.4224 3.12303 96.3428 2.89309 96.2454 2.89309C96.148 2.89309 96.0684 3.07417 96.0684 3.29554C96.0684 3.74257 95.6585 4.25432 95.4767 4.03423C95.4126 3.95666 95.3602 3.70464 95.3602 3.47405C95.3602 3.13439 95.312 3.10332 95.1065 3.30969C94.8891 3.52827 94.9017 3.62385 95.195 3.97895C95.3832 4.20675 95.5362 4.51362 95.5348 4.66106C95.5333 4.8085 95.2269 4.51898 94.8535 4.01816C94.1751 3.10782 93.6902 2.87059 93.5391 3.37526C93.4758 3.5872 93.3766 3.5842 93.0645 3.36048C92.5785 3.01202 92.4376 3.1466 92.6902 3.71793C93.0206 4.46519 92.9223 4.68914 92.434 4.30168C92.1878 4.10645 91.9089 4.00466 91.8144 4.07538C91.7197 4.14631 91.6423 4.05374 91.6423 3.87008C91.6423 3.67721 91.4904 3.53599 91.2827 3.53599C91.0848 3.53599 90.8741 3.38191 90.8145 3.19375C90.727 2.9173 90.5317 2.87594 89.8021 2.97859C88.975 3.09517 88.1096 2.95459 87.3722 2.58428C87.1736 2.48442 87.0566 2.57528 86.9905 2.88087C86.9381 3.12346 86.8068 3.32169 86.6984 3.32169C86.5766 3.32169 86.5438 3.11703 86.6124 2.78594C86.6965 2.3807 86.6541 2.25019 86.4387 2.25019C86.2822 2.25019 86.154 2.40063 86.154 2.58428C86.154 2.80115 86.0763 2.85751 85.9327 2.74501C85.8111 2.64964 84.8938 2.52342 83.8944 2.46449C82.4852 2.38134 82.0965 2.41756 82.1626 2.62521C82.272 2.96874 82.1035 2.95395 81.5509 2.57164C80.9647 2.16597 80.9003 2.17518 80.7914 2.67879C80.6843 3.17489 80.1346 3.26447 80.1346 2.78594C80.1346 2.60914 80.2142 2.46449 80.3116 2.46449C80.409 2.46449 80.4887 2.36805 80.4887 2.25019C80.4887 2.13232 80.287 2.03589 80.0406 2.03589C79.7939 2.03589 79.5464 1.89123 79.4905 1.71444C79.3708 1.33684 78.9544 1.28562 78.8577 1.63643C78.8092 1.8128 78.6908 1.80444 78.4286 1.60622C77.9655 1.25605 76.7708 1.49564 76.7708 1.93838C76.7708 2.10982 76.6114 2.25019 76.4167 2.25019C76.2219 2.25019 76.0029 2.26733 75.9298 2.28855C75.8567 2.30955 75.7691 2.15118 75.7349 1.93645C75.6866 1.63236 75.7551 1.57193 76.0447 1.66365C76.2494 1.72858 76.4167 1.69408 76.4167 1.58714C76.4167 1.30491 75.8645 1.36299 75.3647 1.69794C75.0004 1.94224 74.8228 1.94095 74.2359 1.69044C73.2685 1.27727 72.2743 1.29034 72.4088 1.71444C72.5361 2.11646 72.4554 2.11625 71.8113 1.71315C71.4777 1.50421 70.6839 1.37177 69.5629 1.33813C68.6098 1.30941 67.779 1.20055 67.7163 1.09618C67.6508 0.986889 67.3879 0.994176 67.0967 1.11311C66.3593 1.4142 64.8206 1.29227 64.8195 0.932457C64.8187 0.700156 64.363 0.658582 62.51 0.7218C60.4337 0.792948 60.1164 0.753945 59.355 0.334132C58.5075 -0.133256 58.2277 -0.0846103 57.8101 0.60265C57.752 0.698227 56.8477 0.659868 55.8008 0.517144C54.1945 0.298344 53.8723 0.304773 53.7378 0.557647C53.622 0.775161 53.5418 0.789733 53.4455 0.610793C53.2498 0.247983 49.7136 0.12969 49.6021 0.482213C49.4838 0.856381 48.8574 0.817592 48.734 0.428638C48.6781 0.251841 48.4504 0.113403 48.2282 0.120689C47.8306 0.13419 47.8311 0.137619 48.267 0.35599L48.7096 0.577791L48.2981 0.770018C48.0496 0.886168 47.7626 0.882097 47.5739 0.759731C47.402 0.64851 47.1091 0.569004 46.9231 0.583363C46.7372 0.597506 46.4142 0.541145 46.2053 0.458211C45.9106 0.340775 45.8314 0.390493 45.8513 0.681083C45.8884 1.22326 45.3233 1.29312 45.2082 0.760374C45.141 0.448782 44.9673 0.320631 44.61 0.318488C44.3331 0.316988 43.9273 0.257412 43.7082 0.186479C43.3693 0.0765432 43.3098 0.141048 43.3098 0.617865C43.3098 1.31348 42.762 1.38892 42.4019 0.743016C42.0498 0.111474 40.8546 -0.0858963 40.5396 0.435496C40.3086 0.818021 40.2808 0.818021 39.6367 0.439353C38.833 -0.0336069 38.1944 -0.107755 37.0248 0.13569ZM50.2145 0.762732C50.2145 0.873739 50.1348 0.964388 50.0374 0.964388C49.94 0.964388 49.8604 0.813949 49.8604 0.630294C49.8604 0.446639 49.94 0.355776 50.0374 0.428638C50.1348 0.5015 50.2145 0.651724 50.2145 0.762732ZM127.623 0.833022C127.497 1.16712 127.482 1.39299 127.586 1.39299C127.681 1.39299 127.759 1.30727 127.759 1.20248C127.759 1.09768 127.89 1.02546 128.05 1.04175C128.21 1.05825 128.38 0.935672 128.428 0.769589C128.487 0.564718 128.426 0.509001 128.237 0.596649C128.084 0.667797 127.931 0.62408 127.896 0.499357C127.862 0.374849 127.739 0.524859 127.623 0.833022ZM38.1756 0.750088C38.1756 0.867953 38.0163 0.964388 37.8215 0.964388C37.6268 0.964388 37.4674 0.867953 37.4674 0.750088C37.4674 0.632223 37.6268 0.535788 37.8215 0.535788C38.0163 0.535788 38.1756 0.632223 38.1756 0.750088ZM130.415 1.17869C130.415 1.29655 130.494 1.39299 130.592 1.39299C130.689 1.39299 130.769 1.29655 130.769 1.17869C130.769 1.06082 130.689 0.964388 130.592 0.964388C130.494 0.964388 130.415 1.06082 130.415 1.17869ZM118.907 2.25019C118.907 2.36805 118.986 2.46449 119.084 2.46449C119.181 2.46449 119.261 2.36805 119.261 2.25019C119.261 2.13232 119.181 2.03589 119.084 2.03589C118.986 2.03589 118.907 2.13232 118.907 2.25019ZM113.008 2.83951C112.966 2.92802 112.996 3.19311 113.074 3.42884C113.198 3.803 113.218 3.78265 113.229 3.26811C113.241 2.68672 113.158 2.52578 113.008 2.83951ZM111.134 3.00024C111.111 3.43655 111.433 3.78308 111.924 3.84822C112.393 3.91058 112.405 3.89451 112.093 3.61849C111.908 3.4552 111.66 3.32169 111.54 3.32169C111.421 3.32169 111.283 3.20125 111.234 3.05381C111.185 2.90659 111.14 2.88237 111.134 3.00024ZM115.369 3.25547C115.37 3.35083 115.449 3.57349 115.543 3.75029C115.691 4.02738 115.715 4.02159 115.717 3.70936C115.719 3.51006 115.64 3.2874 115.543 3.21454C115.446 3.14168 115.367 3.1601 115.369 3.25547ZM113.596 3.54177C113.596 3.728 114.283 4.06124 114.393 3.92837C114.427 3.8868 114.262 3.74257 114.025 3.60756C113.789 3.47255 113.596 3.44298 113.596 3.54177ZM116.782 3.85744C116.904 4.03423 117.073 4.17889 117.158 4.17889C117.243 4.17889 117.313 4.03423 117.313 3.85744C117.313 3.67271 117.154 3.53599 116.938 3.53599C116.624 3.53599 116.598 3.58892 116.782 3.85744ZM120.146 3.75029C120.146 3.86815 120.231 3.96459 120.334 3.96459C120.437 3.96459 120.472 3.86815 120.412 3.75029C120.351 3.63242 120.267 3.53599 120.224 3.53599C120.181 3.53599 120.146 3.63242 120.146 3.75029ZM118.312 4.07174C118.368 4.24853 118.445 4.39319 118.483 4.39319C118.521 4.39319 118.553 4.24853 118.553 4.07174C118.553 3.89494 118.476 3.75029 118.381 3.75029C118.287 3.75029 118.256 3.89494 118.312 4.07174ZM119.438 4.17889C119.438 4.29675 119.518 4.39319 119.615 4.39319C119.712 4.39319 119.792 4.29675 119.792 4.17889C119.792 4.06102 119.712 3.96459 119.615 3.96459C119.518 3.96459 119.438 4.06102 119.438 4.17889ZM99.4322 5.46469C99.4322 5.58255 99.3525 5.67899 99.2551 5.67899C99.1577 5.67899 99.0781 5.58255 99.0781 5.46469C99.0781 5.34682 99.1577 5.25039 99.2551 5.25039C99.3525 5.25039 99.4322 5.34682 99.4322 5.46469ZM119.615 5.97236C119.615 6.14487 119.342 6.3206 118.951 6.39861C117.986 6.59169 117.49 6.56576 117.49 6.32189C117.49 6.20402 117.844 6.10759 118.277 6.10759C118.709 6.10759 119.112 6.01115 119.172 5.89329C119.332 5.58062 119.615 5.6312 119.615 5.97236ZM144.843 6.32189C145.074 6.86042 145.078 6.96479 144.869 6.96479C144.731 6.96479 144.57 6.79592 144.51 6.58976C144.45 6.38361 144.354 6.0943 144.297 5.94686C144.074 5.36718 144.586 5.71863 144.843 6.32189ZM140.274 6.45882C140.325 6.61912 140.478 6.75049 140.613 6.75049C140.943 6.75049 140.928 7.10151 140.593 7.25752C140.23 7.42575 139.267 7.17673 139.267 6.91507C139.267 6.79935 139.386 6.76013 139.532 6.82806C139.678 6.89578 139.798 6.85485 139.798 6.73699C139.798 6.61912 139.679 6.4674 139.533 6.39989C139.388 6.33217 139.308 6.19974 139.356 6.10523C139.484 5.85493 140.166 6.11744 140.274 6.45882ZM147.474 6.48604C147.52 6.57647 147.365 6.76034 147.13 6.8945C146.799 7.08329 146.702 7.07858 146.702 6.87328C146.702 6.37932 147.273 6.09301 147.474 6.48604ZM16.3109 7.17909C16.3732 7.30102 16.2208 7.39339 15.9568 7.39339C15.6928 7.39339 15.5404 7.30102 15.6027 7.17909C15.6629 7.06122 15.8223 6.96479 15.9568 6.96479C16.0914 6.96479 16.2507 7.06122 16.3109 7.17909ZM139.395 7.6199C139.46 7.91992 139.582 8.01764 139.777 7.92635C140.377 7.64519 140.971 7.5899 141.599 7.75641L142.25 7.92914L141.701 8.67169C141.398 9.08014 141.122 9.3073 141.086 9.17658C141.014 8.91556 140.329 9.05357 140.329 9.32916C140.329 9.42345 140.429 9.54924 140.55 9.60882C140.716 9.68961 140.718 9.72111 140.557 9.73376C140.439 9.74297 140.18 9.5396 139.982 9.28158C139.783 9.02378 139.621 8.88256 139.621 8.96785C139.621 9.05314 139.471 9.02592 139.288 8.90742C138.968 8.69976 138.681 7.67348 138.851 7.3411C139.009 7.03208 139.3 7.18144 139.395 7.6199ZM141.559 10.3325C141.74 10.1238 141.761 10.1675 141.665 10.5543C141.521 11.1291 141.705 11.1846 142.021 10.6619C142.146 10.4557 142.304 10.3552 142.372 10.4382C142.613 10.729 142.276 11.2729 141.665 11.5819C141.24 11.7966 141.08 11.994 141.15 12.2151C141.206 12.3919 141.363 12.5366 141.499 12.5366C141.634 12.5366 141.745 12.633 141.745 12.7509C141.745 13.0466 141.33 13.02 141.072 12.708C140.761 12.3306 140.805 11.4651 141.136 11.4651C141.288 11.4651 141.364 11.3706 141.305 11.2551C141.148 10.9484 140.506 11.4917 140.506 11.9308C140.506 12.3812 139.834 12.6665 139.559 12.333C139.447 12.1976 139.347 11.8746 139.337 11.6151C139.327 11.3558 139.288 10.999 139.249 10.8222C139.21 10.6454 139.258 10.5157 139.355 10.5342C140.139 10.6818 140.421 10.678 140.447 10.519C140.508 10.1268 140.951 9.97634 141.141 10.283C141.292 10.5271 141.381 10.5376 141.559 10.3325ZM4.99825 10.5847C3.95424 10.7819 3.82747 11.2371 4.52166 12.2981C5.05367 13.1109 5.06978 13.1795 4.7295 13.1795C4.43066 13.1795 4.36108 13.3119 4.3632 13.876C4.36745 14.9644 4.51829 15.112 5.35127 14.8429C5.95888 14.6466 6.18638 14.6744 6.80107 15.0199C7.20225 15.2453 7.56483 15.5743 7.60679 15.7511C7.64893 15.9279 7.69195 15.8314 7.70275 15.5368C7.71656 15.1525 7.57227 14.898 7.19216 14.6361C6.65183 14.2638 6.44522 13.7352 6.92766 13.9591C7.22934 14.0993 7.26723 13.8667 7.01937 13.3938C6.92677 13.217 6.60526 13.0723 6.30482 13.0723C5.89727 13.0723 5.68217 12.9208 5.45785 12.4755C5.19388 11.9513 5.18946 11.8547 5.42191 11.6805C5.56744 11.5714 5.70217 11.2371 5.72112 10.9379C5.74006 10.6385 5.74059 10.4073 5.722 10.424C5.70359 10.4407 5.37783 10.513 4.99825 10.5847ZM150.996 11.3984C151.568 11.5793 151.313 11.8523 150.436 11.9983C149.901 12.0874 149.423 12.0508 149.196 11.9031C148.911 11.7188 148.637 11.7405 148.015 11.9963C147.419 12.2411 146.844 12.2949 145.847 12.1991C144.791 12.0977 144.412 12.1399 144.14 12.3885C143.81 12.6907 143.825 12.708 144.432 12.708C144.784 12.708 145.24 12.7723 145.445 12.851C145.65 12.9296 145.817 12.9153 145.818 12.8188C145.818 12.7226 146.475 12.6193 147.278 12.5897C148.081 12.5599 149.017 12.501 149.358 12.4588C149.699 12.4168 150.316 12.3688 150.73 12.3523C151.408 12.3253 151.483 12.2694 151.483 11.7865C151.483 11.3665 151.396 11.2561 151.084 11.2756C150.784 11.2943 150.763 11.3247 150.996 11.3984ZM12.9551 12.2055C13.508 12.8745 13.5048 13.1259 12.9434 13.1259C12.4246 13.1259 11.6311 12.0098 12.0164 11.8219C12.4115 11.629 12.5133 11.6706 12.9551 12.2055ZM2.3497 12.6418C2.28827 12.8355 2.06856 12.9643 1.84053 12.9405C1.61994 12.9174 1.09607 12.9135 0.676478 12.9318C-0.223427 12.9712 -0.173324 13.3938 0.731184 13.3938C1.06048 13.3938 1.37916 13.4902 1.43935 13.6081C1.49955 13.726 1.42448 13.8224 1.27276 13.8224C0.905039 13.8224 0.920088 14.1695 1.29559 14.344C1.47671 14.428 1.65428 14.3528 1.74687 14.1526C1.9788 13.6512 2.36121 13.7577 2.48585 14.3581C2.60818 14.9481 3.02795 15.0473 3.5134 14.6009C3.74444 14.3886 3.76781 14.2621 3.61095 14.0723C3.49747 13.9349 3.32113 13.5104 3.2188 13.1287C3.01644 12.3737 2.52232 12.0971 2.3497 12.6418ZM139.701 14.1968C139.864 14.7087 139.62 14.833 139.346 14.3785C139.124 14.0112 139.088 14.006 138.987 14.3253C138.925 14.5201 138.803 14.6796 138.717 14.6796C138.548 14.6796 138.496 13.9694 138.651 13.7817C138.829 13.5661 139.598 13.8697 139.701 14.1968ZM160.335 14.9397C160.335 15.0576 160.209 15.0955 160.055 15.024C159.901 14.9524 159.737 14.8939 159.69 14.8939C159.644 14.8939 159.653 14.8017 159.71 14.689C159.837 14.4402 160.335 14.6399 160.335 14.9397ZM135.243 15.2383C135.383 15.408 134.969 15.95 134.796 15.8231C134.571 15.6576 134.65 15.1082 134.9 15.1082C135.029 15.1082 135.184 15.1667 135.243 15.2383ZM139.573 15.2376C139.514 15.3088 139.361 15.3165 139.234 15.2545C139.092 15.1862 139.134 15.1354 139.34 15.1251C139.527 15.1159 139.632 15.1665 139.573 15.2376ZM145.013 15.3077C145.069 15.4174 145.034 15.5676 144.935 15.6418C144.836 15.7157 144.755 15.6259 144.755 15.4423C144.755 15.0658 144.861 15.0105 145.013 15.3077ZM148.955 20.68C148.975 20.9888 148.874 21.1077 148.595 21.1054C148.28 21.1026 148.257 21.0632 148.473 20.8943C148.619 20.7801 148.674 20.6851 148.595 20.6832C148.418 20.6791 148.621 20.2514 148.8 20.2514C148.871 20.2514 148.941 20.4443 148.955 20.68ZM151.588 20.396C151.88 20.5315 151.879 20.5495 151.57 20.6804C151.164 20.8527 150.42 20.6976 150.42 20.4406C150.42 20.2173 151.144 20.1897 151.588 20.396ZM11.771 21.7751C11.4387 22.0299 11.0881 22.0112 11.0881 21.7388C11.0881 21.6141 11.1623 21.5674 11.253 21.6351C11.3436 21.7031 11.4686 21.6589 11.5308 21.5372C11.5929 21.4155 11.7264 21.3777 11.8275 21.4534C11.9459 21.5419 11.9259 21.6561 11.771 21.7751ZM6.75221 21.9628C6.59553 22.2697 8.33001 24.0901 8.53856 23.8377C8.72233 23.615 8.36135 23.0238 7.96884 22.9046C7.71851 22.8286 7.50074 22.5656 7.43807 22.2634C7.33043 21.7442 6.94908 21.577 6.75221 21.9628ZM155.434 28.1269C155.69 28.4364 155.771 28.4503 155.895 28.2066C155.978 28.0442 156.135 27.9775 156.243 28.0585C156.351 28.1396 156.44 28.1035 156.44 27.9788C156.44 27.8541 156.144 27.7519 155.782 27.7519C155.156 27.7519 155.139 27.7697 155.434 28.1269ZM156.882 28.1805C156.822 28.2983 156.857 28.3948 156.96 28.3948C157.063 28.3948 157.148 28.2983 157.148 28.1805C157.148 28.0626 157.113 27.9662 157.07 27.9662C157.027 27.9662 156.943 28.0626 156.882 28.1805ZM150.907 28.3429C150.737 28.3888 150.597 28.5156 150.597 28.6247C150.597 28.872 151.136 28.8787 151.453 28.6357C151.65 28.4846 151.65 28.4383 151.453 28.3571C151.323 28.3035 151.077 28.2971 150.907 28.3429ZM157.502 28.6091C157.502 28.7269 157.706 28.8234 157.955 28.8234C158.212 28.8234 158.361 28.7306 158.299 28.6091C158.238 28.4912 158.035 28.3948 157.846 28.3948C157.657 28.3948 157.502 28.4912 157.502 28.6091ZM154.045 29.2614C153.987 29.3741 154.104 29.4663 154.305 29.4663C154.732 29.4663 154.775 29.3471 154.409 29.1772C154.267 29.1108 154.102 29.1487 154.045 29.2614ZM11.6193 29.4434C11.6193 29.6694 11.1804 29.8977 10.7638 29.888C10.509 29.8822 10.5158 29.8381 10.8121 29.5666C11.1958 29.2153 11.6193 29.1506 11.6193 29.4434ZM154.935 29.6806C154.867 29.8143 155.223 29.8949 155.883 29.8949C156.539 29.8949 156.968 29.9911 157.011 30.1478C157.054 30.3048 157.211 30.3396 157.424 30.2395C157.747 30.088 157.741 30.0603 157.325 29.7798C156.813 29.435 155.097 29.3636 154.935 29.6806ZM32.2889 30.0425C32.1185 30.0965 31.9791 30.23 31.9791 30.3391C31.9791 30.4484 31.8994 30.5378 31.8021 30.5378C31.7047 30.5378 31.625 30.3931 31.625 30.2163C31.625 30.0025 31.7881 29.9032 32.1119 29.9197C32.4115 29.935 32.4796 29.9823 32.2889 30.0425ZM13.3265 30.4306C13.4853 30.6229 13.5117 30.7521 13.3918 30.7521C13.2819 30.7521 13.241 30.8485 13.3012 30.9664C13.4417 31.2415 13.279 31.2388 12.8462 30.9582C12.5657 30.7767 12.5436 30.6801 12.7251 30.4308C13.0055 30.0451 13.008 30.0451 13.3265 30.4306ZM13.0356 31.4846C13.0356 31.5338 13.0871 31.7509 13.1502 31.9667C13.244 32.288 13.2213 32.3107 13.0262 32.0915C12.895 31.9442 12.6491 31.8236 12.4795 31.8236C12.3099 31.8236 12.1221 31.7271 12.0619 31.6093C11.998 31.4843 12.178 31.395 12.494 31.395C12.7918 31.395 13.0356 31.4353 13.0356 31.4846ZM143.693 33.7523C143.349 34.0208 143.162 34.0208 143.162 33.7523C143.162 33.6344 143.341 33.5395 143.56 33.5412C143.882 33.544 143.907 33.5843 143.693 33.7523ZM151.128 33.9666C151.128 34.0844 151.213 34.1809 151.316 34.1809C151.419 34.1809 151.454 34.0844 151.394 33.9666C151.334 33.8487 151.25 33.7523 151.207 33.7523C151.164 33.7523 151.128 33.8487 151.128 33.9666ZM152.335 33.8986C152.462 33.9606 152.615 33.9529 152.674 33.8817C152.733 33.8106 152.628 33.76 152.442 33.7692C152.235 33.7795 152.193 33.8303 152.335 33.8986ZM30.8489 34.8639C30.9057 34.9753 30.9114 35.1163 30.8613 35.1769C30.7373 35.327 30.0317 34.8551 30.0317 34.6219C30.0317 34.3885 30.7085 34.5889 30.8489 34.8639ZM143.516 34.5666C143.516 34.7893 143.132 35.2524 142.948 35.2524C142.869 35.2524 142.904 35.0595 143.026 34.8238C143.249 34.3909 143.516 34.251 143.516 34.5666ZM32.1562 34.9121C32.1562 35.0846 32.023 35.1836 31.8463 35.1427C31.6758 35.1032 31.4967 35.0621 31.448 35.0512C31.3253 35.0239 31.8596 34.6168 32.0234 34.6127C32.0963 34.611 32.1562 34.7456 32.1562 34.9121ZM139.621 34.704C139.621 34.7561 139.541 34.8581 139.444 34.9309C139.346 35.0038 139.267 34.9611 139.267 34.8364C139.267 34.7117 139.346 34.6095 139.444 34.6095C139.541 34.6095 139.621 34.6519 139.621 34.704ZM150.928 34.8971C151.037 35.0552 151.072 35.249 151.007 35.3276C150.942 35.4062 151.148 35.3615 151.465 35.2277C151.891 35.0479 152.092 35.0473 152.24 35.2258C152.352 35.3615 153.02 35.4667 153.769 35.4667C154.993 35.4667 155.076 35.439 154.814 35.121C154.477 34.7136 152.13 34.5715 151.592 34.9258C151.35 35.0852 151.237 35.0722 151.179 34.8774C151.135 34.7301 151.016 34.6095 150.915 34.6095C150.794 34.6095 150.799 34.7085 150.928 34.8971ZM156.971 34.9067C156.971 34.9521 157.206 35.0312 157.493 35.0822C157.78 35.133 157.974 35.0959 157.925 34.9993C157.837 34.8274 156.971 34.7434 156.971 34.9067ZM17.0598 35.4C17.1249 35.6366 16.5906 35.984 16.4407 35.8025C16.3939 35.7457 16.4054 35.5425 16.4662 35.351C16.5826 34.9832 16.9534 35.0139 17.0598 35.4ZM145.817 35.2524C145.817 35.3702 145.738 35.4667 145.64 35.4667C145.543 35.4667 145.463 35.3702 145.463 35.2524C145.463 35.1345 145.543 35.0381 145.64 35.0381C145.738 35.0381 145.817 35.1345 145.817 35.2524ZM155.909 35.4667C155.909 35.5845 155.988 35.681 156.086 35.681C156.183 35.681 156.263 35.5845 156.263 35.4667C156.263 35.3488 156.183 35.2524 156.086 35.2524C155.988 35.2524 155.909 35.3488 155.909 35.4667ZM152.368 36.1096C152.222 36.2238 152.182 36.3172 152.279 36.3172C152.377 36.3172 152.576 36.2238 152.722 36.1096C152.868 35.9954 152.908 35.9019 152.81 35.9019C152.713 35.9019 152.514 35.9954 152.368 36.1096ZM153.74 36.2514C153.862 36.311 154.061 36.311 154.182 36.2514C154.304 36.1921 154.205 36.1434 153.961 36.1434C153.718 36.1434 153.618 36.1921 153.74 36.2514ZM157.06 36.5373C156.999 36.6556 157.074 36.7525 157.226 36.7525C157.378 36.7525 157.502 36.8523 157.502 36.9743C157.502 37.1217 157.626 37.1159 157.871 36.9569C158.3 36.6794 158.284 36.6455 157.646 36.4604C157.384 36.3845 157.12 36.419 157.06 36.5373ZM150.774 36.7621C150.531 36.8601 149.774 37.1266 149.092 37.3547L147.853 37.7689L149.978 37.6774C151.146 37.627 152.301 37.5327 152.545 37.4676C152.985 37.3499 152.985 37.3482 152.597 37.1684C152.382 37.069 152.032 37.0283 151.819 37.078C151.291 37.201 150.975 36.9348 151.406 36.7306C151.875 36.508 151.339 36.5348 150.774 36.7621ZM13.1838 37.2794C13.0227 37.7074 12.9235 37.7665 12.6564 37.5934C12.0998 37.2329 12.2805 36.7525 12.9728 36.7525C13.3433 36.7525 13.3633 36.8024 13.1838 37.2794ZM17.5433 37.3817C17.7308 37.749 17.3255 37.8242 16.7464 37.5293C16.2243 37.2636 16.2018 37.2162 16.5023 37.0129C16.8325 36.7891 17.3308 36.9657 17.5433 37.3817ZM15.647 37.1018C15.866 37.1729 16.0453 37.3163 16.0453 37.4205C16.0453 37.7314 15.3977 37.6345 15.1601 37.2882C14.922 36.9408 15.0268 36.9008 15.647 37.1018ZM153.654 37.1206C153.923 37.1697 154.321 37.1684 154.539 37.1176C154.757 37.0669 154.537 37.0266 154.05 37.0281C153.563 37.0298 153.385 37.0714 153.654 37.1206ZM14.4519 37.3954C14.1053 37.6667 13.8709 37.6667 14.0093 37.3954C14.0695 37.2775 14.2535 37.1826 14.4181 37.1843C14.6761 37.1873 14.6809 37.2164 14.4519 37.3954ZM13.7438 37.4899C13.7438 37.542 13.6641 37.644 13.5667 37.7168C13.4694 37.7897 13.3897 37.747 13.3897 37.6223C13.3897 37.4976 13.4694 37.3954 13.5667 37.3954C13.6641 37.3954 13.7438 37.4378 13.7438 37.4899ZM15.6911 38.199C15.6911 38.2873 15.4919 38.3737 15.2485 38.3906C15.0052 38.4077 14.806 38.3353 14.806 38.2299C14.806 38.1244 15.0052 38.0383 15.2486 38.0383C15.4921 38.0383 15.6912 38.1107 15.6911 38.199ZM146.315 40.7562C146.443 40.8182 146.596 40.8105 146.654 40.7393C146.713 40.6682 146.609 40.6176 146.422 40.6268C146.216 40.6371 146.174 40.6879 146.315 40.7562ZM139.798 41.6814C139.591 41.8432 139.64 41.8899 140.019 41.8925C140.287 41.8942 140.506 41.7992 140.506 41.6814C140.506 41.4105 140.144 41.4105 139.798 41.6814ZM9.52274 43.4498C9.55603 44.2457 9.52894 44.9207 9.46237 44.9499C9.21416 45.059 9.18689 46.7813 9.41722 47.8026C9.65481 48.8559 9.65552 48.8529 9.55107 47.0389C9.43935 45.0986 9.50999 44.9638 9.93631 46.3049L10.2036 47.146L10.1293 46.396C9.92569 44.3402 9.64189 42.2167 9.55709 42.116C9.50486 42.0536 9.48946 42.6541 9.52274 43.4498ZM150.597 42.9672C150.597 43.085 150.682 43.1815 150.785 43.1815C150.888 43.1815 150.923 43.085 150.863 42.9672C150.803 42.8493 150.718 42.7529 150.675 42.7529C150.632 42.7529 150.597 42.8493 150.597 42.9672ZM137.056 43.5719C136.923 43.9924 137.081 44.1518 137.359 43.878C137.483 43.756 137.744 43.6163 137.939 43.5674C138.197 43.5025 138.139 43.4485 137.724 43.3683C137.325 43.291 137.126 43.3514 137.056 43.5719ZM139.621 43.3958C139.406 43.5638 139.431 43.6041 139.754 43.6069C139.973 43.6086 140.152 43.5136 140.152 43.3958C140.152 43.1273 139.964 43.1273 139.621 43.3958ZM141.181 43.3278C141.309 43.3898 141.461 43.3821 141.52 43.3109C141.579 43.2398 141.475 43.1892 141.288 43.1984C141.082 43.2087 141.04 43.2595 141.181 43.3278ZM123.411 44.139C122.961 44.5506 122.698 44.5547 122.979 44.1458C123.1 43.969 123.324 43.8244 123.477 43.8244C123.699 43.8244 123.686 43.8872 123.411 44.139ZM8.96364 44.3475C8.96364 44.5174 9.04331 44.7159 9.14068 44.7887C9.23806 44.8616 9.31773 44.7225 9.31773 44.4799C9.31773 44.2373 9.23806 44.0387 9.14068 44.0387C9.04331 44.0387 8.96364 44.1775 8.96364 44.3475ZM125.634 44.3359C125.634 44.3813 125.869 44.4604 126.156 44.5114C126.443 44.5622 126.638 44.5251 126.588 44.4285C126.501 44.2566 125.634 44.1726 125.634 44.3359ZM127.228 44.7114C127.228 44.8127 127.427 44.8959 127.67 44.8959C127.914 44.8959 128.113 44.8588 128.113 44.8138C128.113 44.7686 127.914 44.6854 127.67 44.6291C127.427 44.5727 127.228 44.6098 127.228 44.7114ZM149.074 44.7174C149.024 44.8155 149.267 44.8959 149.613 44.8959C149.96 44.8959 150.243 44.8586 150.243 44.8129C150.243 44.637 149.16 44.5485 149.074 44.7174ZM125.07 44.8279C125.198 44.8899 125.351 44.8822 125.409 44.811C125.468 44.7399 125.364 44.6893 125.177 44.6985C124.971 44.7088 124.929 44.7596 125.07 44.8279ZM122.345 45.5668C122.303 45.6491 122.368 45.7655 122.491 45.8255C122.659 45.9082 122.649 45.9901 122.448 46.1622C122.244 46.3364 122.368 46.3895 122.979 46.3904C124.092 46.3917 125.103 46.165 125.103 45.9144C125.103 45.7981 124.928 45.7584 124.714 45.8264C124.5 45.8941 124.241 45.8679 124.139 45.7683C123.898 45.5341 122.445 45.371 122.345 45.5668ZM144.722 45.6851C144.849 45.7471 145.002 45.7394 145.061 45.6682C145.12 45.5971 145.015 45.5465 144.829 45.5557C144.623 45.566 144.581 45.6168 144.722 45.6851ZM135.106 45.9674C134.632 46.1133 134.665 46.1337 135.416 46.1564C135.878 46.1703 136.257 46.0852 136.257 45.9674C136.257 45.7261 135.889 45.7261 135.106 45.9674ZM15.1601 46.2888C15.0372 46.4682 15.018 46.6103 15.1167 46.6103C15.2141 46.6103 15.3929 46.4656 15.5142 46.2888C15.6371 46.1095 15.6564 45.9674 15.5576 45.9674C15.4602 45.9674 15.2814 46.112 15.1601 46.2888ZM125.723 46.1817C125.783 46.2995 125.912 46.396 126.009 46.396C126.107 46.396 126.137 46.2995 126.077 46.1817C126.017 46.0638 125.888 45.9674 125.791 45.9674C125.693 45.9674 125.663 46.0638 125.723 46.1817ZM10.7397 46.9853C10.7427 47.4274 10.8714 47.9818 11.0255 48.2175C11.2879 48.6187 11.2987 48.5756 11.193 47.5406C11.1115 46.741 11.1425 46.4045 11.3056 46.3253C11.4293 46.2648 11.3514 46.2078 11.1324 46.1986C10.7866 46.1838 10.7348 46.2878 10.7397 46.9853ZM121.256 46.3302C121.428 46.3846 121.667 46.381 121.787 46.3223C121.907 46.2635 121.766 46.2192 121.474 46.2235C121.182 46.2278 121.084 46.2758 121.256 46.3302ZM147.296 46.4474C147.238 46.5597 146.95 46.6086 146.654 46.5561C146.169 46.4697 146.148 46.4883 146.441 46.7476C146.843 47.1038 149.678 46.8919 149.343 46.5306C149.163 46.3362 147.389 46.2642 147.296 46.4474ZM114.968 46.5378C115.089 46.5974 115.289 46.5974 115.41 46.5378C115.532 46.4785 115.432 46.4298 115.189 46.4298C114.945 46.4298 114.846 46.4785 114.968 46.5378ZM129.175 46.8372C129.175 46.9619 129.255 47.0046 129.352 46.9317C129.45 46.8589 129.529 46.7569 129.529 46.7048C129.529 46.6527 129.45 46.6103 129.352 46.6103C129.255 46.6103 129.175 46.7125 129.175 46.8372ZM131.801 46.9184C131.062 47.1773 130.611 47.6063 131.3 47.3948C131.543 47.3203 132.086 47.2577 132.505 47.2562C132.925 47.2545 133.225 47.1683 133.172 47.0648C133.006 46.7393 132.475 46.6825 131.801 46.9184ZM150.597 46.6945C150.597 46.7408 150.717 46.8342 150.863 46.9022C151.009 46.9699 151.128 46.9319 151.128 46.8179C151.128 46.7037 151.009 46.6103 150.863 46.6103C150.717 46.6103 150.597 46.6482 150.597 46.6945ZM43.4869 47.0389C43.4869 47.1567 43.4518 47.2532 43.4088 47.2532C43.3658 47.2532 43.2815 47.1567 43.2213 47.0389C43.1611 46.921 43.1963 46.8246 43.2994 46.8246C43.4024 46.8246 43.4869 46.921 43.4869 47.0389ZM152.455 47.0359C152.57 47.2611 153.162 47.2202 153.366 46.9729C153.434 46.8914 153.232 46.8246 152.918 46.8246C152.588 46.8246 152.392 46.9137 152.455 47.0359ZM153.917 46.9759C154.136 47.0269 154.495 47.0269 154.714 46.9759C154.933 46.9247 154.753 46.8829 154.315 46.8829C153.877 46.8829 153.698 46.9247 153.917 46.9759ZM148.119 47.2615L147.322 47.3824L147.958 47.5496C148.308 47.6415 148.809 47.6848 149.072 47.6458C149.493 47.583 149.512 47.5489 149.232 47.3575C149.058 47.2382 148.557 47.1949 148.119 47.2615ZM143.109 47.4898C143.249 47.6593 143.397 47.661 143.631 47.4962C143.918 47.2945 143.894 47.2654 143.436 47.2596C143.055 47.2549 142.967 47.3173 143.109 47.4898ZM145.43 47.6138C145.558 47.6758 145.71 47.6681 145.769 47.5969C145.828 47.5258 145.724 47.4752 145.537 47.4844C145.331 47.4947 145.289 47.5455 145.43 47.6138ZM152.191 47.8772C152.191 47.9848 151.872 48.1378 151.483 48.2175C151.093 48.2972 150.774 48.4503 150.774 48.5578C150.774 48.8236 151.788 48.8071 151.925 48.539C151.985 48.4211 152.181 48.3247 152.359 48.3247C152.538 48.3247 152.73 48.18 152.786 48.0032C152.855 47.7846 152.776 47.6818 152.539 47.6818C152.348 47.6818 152.191 47.7696 152.191 47.8772ZM10.0286 48.8069C10.0332 49.9868 10.3324 50.2212 10.4058 49.1024C10.4515 48.4068 10.4046 48.1104 10.2484 48.1104C10.1148 48.1104 10.027 48.3888 10.0286 48.8069ZM43.5754 48.3247C43.6356 48.4425 43.7597 48.539 43.8514 48.539C43.9431 48.539 44.018 48.4425 44.018 48.3247C44.018 48.2068 43.8937 48.1104 43.742 48.1104C43.5902 48.1104 43.5152 48.2068 43.5754 48.3247ZM119.792 48.3247C119.792 48.4425 119.872 48.539 119.969 48.539C120.066 48.539 120.146 48.4425 120.146 48.3247C120.146 48.2068 120.066 48.1104 119.969 48.1104C119.872 48.1104 119.792 48.2068 119.792 48.3247ZM117.003 48.4818C116.88 48.5334 116.825 48.6637 116.88 48.7715C117.009 49.0239 117.668 49.0278 117.668 48.7762C117.668 48.5291 117.288 48.3611 117.003 48.4818ZM43.4537 48.8996C43.5814 48.9616 43.7342 48.9539 43.793 48.8827C43.8517 48.8116 43.7473 48.761 43.5607 48.7702C43.3544 48.7805 43.3125 48.8313 43.4537 48.8996ZM114.392 48.9676C114.254 49.2389 114.488 49.2389 114.835 48.9676C115.064 48.7886 115.059 48.7595 114.801 48.7565C114.636 48.7548 114.452 48.8497 114.392 48.9676ZM139.975 49.6231C139.975 49.7478 140.054 49.7905 140.152 49.7176C140.249 49.6448 140.329 49.5428 140.329 49.4907C140.329 49.4386 140.249 49.3962 140.152 49.3962C140.054 49.3962 139.975 49.4984 139.975 49.6231ZM142.928 49.7095C142.893 49.837 142.457 49.9066 141.907 49.8726C141.38 49.84 140.59 49.9414 140.152 50.0978L139.355 50.3824L140.329 50.4085C141.428 50.4383 143.808 49.9043 143.968 49.5923C144.027 49.475 143.84 49.4084 143.531 49.4369C143.233 49.4645 142.962 49.5871 142.928 49.7095ZM46.0876 49.7483C46.0249 49.8241 45.673 49.9071 45.3056 49.9328C44.9382 49.9583 44.4385 49.9988 44.195 50.0226L43.7524 50.0663L44.1766 50.2716C44.4567 50.4072 44.9675 50.3929 45.6815 50.2292C46.8436 49.9626 47.3947 49.6105 46.6501 49.6105C46.4033 49.6105 46.1503 49.6726 46.0876 49.7483ZM104.301 49.8248C103.963 50.0005 103.965 50.0097 104.345 50.0241C104.564 50.0322 104.743 49.9426 104.743 49.8248C104.743 49.7069 104.724 49.6173 104.699 49.6255C104.675 49.6338 104.496 49.7234 104.301 49.8248ZM72.6103 50.0391C72.5501 50.1569 72.665 50.2534 72.8654 50.2534C73.0658 50.2534 73.2299 50.1569 73.2299 50.0391C73.2299 49.9212 73.1152 49.8248 72.9748 49.8248C72.8344 49.8248 72.6705 49.9212 72.6103 50.0391ZM75.4906 51.0626C75.4075 51.4468 75.4615 51.5385 75.7694 51.536C75.9913 51.534 76.0695 51.4667 75.9564 51.3752C75.8493 51.2887 75.7237 51.0756 75.6775 50.9018C75.6184 50.6794 75.563 50.727 75.4906 51.0626ZM45.0471 51.0426C45.1748 51.1046 45.3276 51.0969 45.3863 51.0257C45.4451 50.9546 45.3407 50.904 45.1541 50.9132C44.9478 50.9235 44.9058 50.9743 45.0471 51.0426ZM53.9323 52.1821C54.0784 52.2963 54.3572 52.3846 54.552 52.3779L54.9061 52.3662L54.552 52.1821C54.3572 52.0807 54.0784 51.9926 53.9323 51.9862C53.6963 51.9757 53.6963 51.9973 53.9323 52.1821ZM46.5258 52.37C46.3463 52.5078 46.3781 52.5792 46.6586 52.6681C46.9034 52.7455 47.0277 52.6833 47.0277 52.4834C47.0277 52.1416 46.87 52.106 46.5258 52.37ZM55.9683 52.825C55.9081 52.9428 55.9832 53.0393 56.1349 53.0393C56.2866 53.0393 56.4109 52.9428 56.4109 52.825C56.4109 52.7071 56.336 52.6107 56.2443 52.6107C56.1526 52.6107 56.0285 52.7071 55.9683 52.825ZM0 55.6109C0 56.8485 0.0292119 57.3546 0.0649744 56.736C0.100737 56.1173 0.100737 55.1045 0.0649744 54.4858C0.0292119 53.8671 0 54.3733 0 55.6109Z" fill="black"/>
</svg>
