<svg width="216" height="28" viewBox="0 0 216 28" fill="none" xmlns="http://www.w3.org/2000/svg">
<g clip-path="url(#clip0_1666_26)">
<path d="M28 14C28 6.26801 21.732 0 14 0C6.26801 0 0 6.26801 0 14C0 20.9877 5.11957 26.7796 11.8125 27.8299V18.0469H8.25781V14H11.8125V10.9156C11.8125 7.40688 13.9027 5.46875 17.1005 5.46875C18.6318 5.46875 20.2344 5.74219 20.2344 5.74219V9.1875H18.4691C16.73 9.1875 16.1875 10.2668 16.1875 11.375V14H20.0703L19.4496 18.0469H16.1875V27.8299C22.8804 26.7796 28 20.9877 28 14Z" fill="white"/>
</g>
<g clip-path="url(#clip1_1666_26)">
<path d="M55.8085 25.3749C66.372 25.3749 72.1513 16.621 72.1513 9.03205C72.1513 8.78595 72.1459 8.53439 72.1349 8.2883C73.2592 7.47525 74.2294 6.46817 75 5.31439C73.9529 5.78024 72.8412 6.08449 71.7029 6.21674C72.9015 5.49827 73.799 4.3696 74.2289 3.03994C73.1013 3.70819 71.8682 4.17959 70.5823 4.43392C69.716 3.51337 68.5705 2.90385 67.323 2.6996C66.0754 2.49536 64.7954 2.70777 63.6807 3.30399C62.566 3.90021 61.6788 4.84703 61.1562 5.99807C60.6335 7.14912 60.5047 8.44026 60.7895 9.67189C58.5062 9.55732 56.2726 8.9642 54.2333 7.93099C52.194 6.89779 50.3946 5.44755 48.9518 3.67431C48.2185 4.93866 47.9941 6.4348 48.3242 7.85865C48.6543 9.2825 49.5142 10.5272 50.7291 11.3399C49.8171 11.3109 48.925 11.0653 48.1266 10.6235V10.6945C48.1257 12.0214 48.5844 13.3076 49.4247 14.3344C50.2649 15.3613 51.4349 16.0655 52.7356 16.3274C51.8907 16.5585 51.004 16.5922 50.144 16.4258C50.511 17.5669 51.2252 18.5649 52.1867 19.2806C53.1483 19.9963 54.3093 20.3939 55.5077 20.418C53.4732 22.0162 50.9599 22.883 48.3727 22.8789C47.9138 22.8782 47.4555 22.8501 47 22.7947C49.6283 24.4809 52.6858 25.3765 55.8085 25.3749Z" fill="white"/>
</g>
<g clip-path="url(#clip2_1666_26)">
<path d="M108 2.52109C111.741 2.52109 112.184 2.5375 113.655 2.60312C115.022 2.66328 115.76 2.89297 116.252 3.08438C116.903 3.33594 117.373 3.64219 117.86 4.12891C118.352 4.62109 118.653 5.08594 118.905 5.73672C119.096 6.22891 119.326 6.97266 119.386 8.33438C119.452 9.81094 119.468 10.2539 119.468 13.9891C119.468 17.7297 119.452 18.1727 119.386 19.6438C119.326 21.0109 119.096 21.7492 118.905 22.2414C118.653 22.8922 118.347 23.3625 117.86 23.8492C117.368 24.3414 116.903 24.6422 116.252 24.8938C115.76 25.0852 115.016 25.3148 113.655 25.375C112.178 25.4406 111.735 25.457 108 25.457C104.259 25.457 103.816 25.4406 102.345 25.375C100.978 25.3148 100.24 25.0852 99.7477 24.8938C99.0969 24.6422 98.6266 24.3359 98.1398 23.8492C97.6477 23.357 97.3469 22.8922 97.0953 22.2414C96.9039 21.7492 96.6742 21.0055 96.6141 19.6438C96.5484 18.1672 96.532 17.7242 96.532 13.9891C96.532 10.2484 96.5484 9.80547 96.6141 8.33438C96.6742 6.96719 96.9039 6.22891 97.0953 5.73672C97.3469 5.08594 97.6531 4.61563 98.1398 4.12891C98.632 3.63672 99.0969 3.33594 99.7477 3.08438C100.24 2.89297 100.984 2.66328 102.345 2.60312C103.816 2.5375 104.259 2.52109 108 2.52109ZM108 0C104.199 0 103.723 0.0164062 102.23 0.0820313C100.743 0.147656 99.7203 0.388281 98.8344 0.732813C97.9102 1.09375 97.1281 1.56953 96.3516 2.35156C95.5695 3.12813 95.0938 3.91016 94.7328 4.82891C94.3883 5.72031 94.1477 6.7375 94.082 8.225C94.0164 9.72344 94 10.1992 94 14C94 17.8008 94.0164 18.2766 94.082 19.7695C94.1477 21.257 94.3883 22.2797 94.7328 23.1656C95.0938 24.0898 95.5695 24.8719 96.3516 25.6484C97.1281 26.425 97.9102 26.9063 98.8289 27.2617C99.7203 27.6063 100.737 27.8469 102.225 27.9125C103.718 27.9781 104.194 27.9945 107.995 27.9945C111.795 27.9945 112.271 27.9781 113.764 27.9125C115.252 27.8469 116.274 27.6063 117.16 27.2617C118.079 26.9063 118.861 26.425 119.637 25.6484C120.414 24.8719 120.895 24.0898 121.251 23.1711C121.595 22.2797 121.836 21.2625 121.902 19.775C121.967 18.282 121.984 17.8063 121.984 14.0055C121.984 10.2047 121.967 9.72891 121.902 8.23594C121.836 6.74844 121.595 5.72578 121.251 4.83984C120.906 3.91016 120.43 3.12813 119.648 2.35156C118.872 1.575 118.09 1.09375 117.171 0.738281C116.28 0.39375 115.263 0.153125 113.775 0.0875C112.277 0.0164063 111.801 0 108 0Z" fill="white"/>
<path d="M108 6.80859C104.03 6.80859 100.809 10.0297 100.809 14C100.809 17.9703 104.03 21.1914 108 21.1914C111.97 21.1914 115.191 17.9703 115.191 14C115.191 10.0297 111.97 6.80859 108 6.80859ZM108 18.6648C105.424 18.6648 103.335 16.5758 103.335 14C103.335 11.4242 105.424 9.33516 108 9.33516C110.576 9.33516 112.665 11.4242 112.665 14C112.665 16.5758 110.576 18.6648 108 18.6648Z" fill="white"/>
<path d="M117.155 6.52461C117.155 7.4543 116.4 8.20352 115.476 8.20352C114.546 8.20352 113.797 7.44883 113.797 6.52461C113.797 5.59492 114.552 4.8457 115.476 4.8457C116.4 4.8457 117.155 5.60039 117.155 6.52461Z" fill="white"/>
</g>
<g clip-path="url(#clip3_1666_26)">
<path d="M166.927 0H143.067C141.924 0 141 0.902344 141 2.01797V25.9766C141 27.0922 141.924 28 143.067 28H166.927C168.07 28 169 27.0922 169 25.982V2.01797C169 0.902344 168.07 0 166.927 0ZM149.307 23.8602H145.151V10.4945H149.307V23.8602ZM147.229 8.67344C145.895 8.67344 144.817 7.59609 144.817 6.26719C144.817 4.93828 145.895 3.86094 147.229 3.86094C148.558 3.86094 149.635 4.93828 149.635 6.26719C149.635 7.59062 148.558 8.67344 147.229 8.67344ZM164.86 23.8602H160.709V17.3633C160.709 15.8156 160.682 13.8195 158.549 13.8195C156.389 13.8195 156.061 15.5094 156.061 17.2539V23.8602H151.916V10.4945H155.897V12.3211H155.952C156.504 11.2711 157.86 10.1609 159.878 10.1609C164.084 10.1609 164.86 12.9281 164.86 16.5266V23.8602Z" fill="white"/>
</g>
<g clip-path="url(#clip4_1666_26)">
<path fill-rule="evenodd" clip-rule="evenodd" d="M207.651 7.63914C206.205 6.26048 204.276 5.50943 202.28 5.54029C198.628 5.54029 195.526 8.00435 194.42 11.3224C193.833 13.0611 193.833 14.944 194.42 16.6827H194.425C195.536 19.9956 198.633 22.4597 202.285 22.4597C204.171 22.4597 205.789 21.9774 207.044 21.1256V21.1222C208.52 20.1448 209.528 18.6067 209.842 16.8679H202.28V11.4768H215.486C215.65 12.413 215.727 13.3698 215.727 14.3215C215.727 18.5797 214.206 22.1798 211.558 24.6181L211.56 24.6202C209.24 26.7602 206.056 28 202.28 28C196.987 28 192.146 25.0163 189.77 20.2888C187.784 16.3329 187.784 11.6722 189.77 7.71633C192.146 2.98365 196.987 -3.31189e-05 202.28 -3.31189e-05C205.758 -0.0411869 209.117 1.26545 211.648 3.64208L207.651 7.63914Z" fill="white"/>
</g>
<defs>
<clipPath id="clip0_1666_26">
<rect width="28" height="28" fill="white"/>
</clipPath>
<clipPath id="clip1_1666_26">
<rect width="28" height="28" fill="white" transform="translate(47)"/>
</clipPath>
<clipPath id="clip2_1666_26">
<rect width="28" height="28" fill="white" transform="translate(94)"/>
</clipPath>
<clipPath id="clip3_1666_26">
<rect width="28" height="28" fill="white" transform="translate(141)"/>
</clipPath>
<clipPath id="clip4_1666_26">
<rect width="28" height="28" fill="white" transform="translate(188)"/>
</clipPath>
</defs>
</svg>
