<svg width="32" height="32" viewBox="0 0 32 32" fill="none" xmlns="http://www.w3.org/2000/svg">
<path fill-rule="evenodd" clip-rule="evenodd" d="M22.9672 18.9673C22.5742 18.7708 20.6474 17.8239 20.2887 17.692C19.93 17.5614 19.6688 17.4968 19.4064 17.8898C19.1453 18.2802 18.3948 19.1638 18.1667 19.4249C17.9372 19.6873 17.7091 19.719 17.3174 19.5238C16.9257 19.326 15.6623 18.9132 14.1654 17.5786C13.0009 16.5393 12.2136 15.2561 11.9854 14.8631C11.7572 14.4714 11.9603 14.2591 12.1568 14.0639C12.3336 13.8885 12.5485 13.6063 12.745 13.3781C12.9415 13.1487 13.0062 12.9851 13.1367 12.7227C13.2686 12.4615 13.2027 12.2334 13.1038 12.0369C13.0062 11.8404 12.2228 9.91096 11.8957 9.12626C11.5779 8.36267 11.2548 8.46685 11.0148 8.45367C10.7853 8.44312 10.5242 8.44048 10.263 8.44048C10.0019 8.44048 9.57724 8.53807 9.21852 8.93108C8.85849 9.32277 7.84696 10.271 7.84696 12.2004C7.84696 14.1285 9.25018 15.992 9.44668 16.2545C9.64318 16.5156 12.2096 20.4747 16.141 22.172C17.0774 22.5755 17.8067 22.8169 18.3751 22.9963C19.3141 23.2956 20.1687 23.2534 20.8439 23.1519C21.5956 23.0398 23.1624 22.2036 23.4894 21.2884C23.8152 20.3731 23.8152 19.5884 23.7176 19.4249C23.62 19.2614 23.3589 19.1638 22.9659 18.9673H22.9672ZM15.8166 28.7305H15.8113C13.4762 28.7309 11.1841 28.1032 9.175 26.9131L8.70023 26.6309L3.76522 27.926L5.08272 23.1149L4.7728 22.6217C3.46735 20.5437 2.7765 18.1388 2.78006 15.6847C2.7827 8.49719 8.63033 2.64956 15.8218 2.64956C19.3035 2.64956 22.5768 4.00794 25.0377 6.47149C26.2515 7.68029 27.2136 9.11778 27.8683 10.7008C28.5229 12.2838 28.8572 13.9809 28.8517 15.694C28.8491 22.8815 23.0015 28.7305 15.8166 28.7305ZM26.9104 4.60008C25.4574 3.13742 23.7284 1.97767 21.8239 1.18804C19.9193 0.398421 17.877 -0.00537582 15.8152 5.40419e-05C7.17172 5.40419e-05 0.134519 7.03594 0.131882 15.6834C0.130563 18.4477 0.851955 21.146 2.22484 23.5238L0 31.6516L8.31382 29.4703C10.6137 30.7234 13.1909 31.3799 15.81 31.38H15.8166C24.4601 31.38 31.4973 24.3441 31.4999 15.6953C31.5063 13.6343 31.104 11.5926 30.3162 9.68812C29.5284 7.78366 28.3709 6.0543 26.9104 4.60008Z" fill="black"/>
</svg>
